<?xml version="1.0" encoding="UTF-8"?>
<svg id="Layer_1" data-name="Layer 1" xmlns="http://www.w3.org/2000/svg" version="1.1" viewBox="0 0 1000 1000">
  <defs>
    <style>
      .cls-1 {
        fill: #fff;
        stroke-width: 0px;
      }
    </style>
  </defs>
  <path class="cls-1" d="M317.6,99.4c2.1,0,4.3,1.6,4.3,3.8s-1.7,3.8-4,3.8-4.1-1.8-4.1-3.7,1.5-3.9,3.8-3.9M311.5,104.8c.1,2.4,3.2,4.5,6.6,4.1,3.4,0,5.7-2.1,5.7-4.1h9c0-.8.2-2.1.2-2.8l-8.7-.5c-.5-2.2-3.7-4.4-6.9-4.4-3.2-.2-5.8,3.1-5.9,4.4,0,.5-8.9.5-9,0v3.3c.6.1,9-.2,9,0"/>
  <path class="cls-1" d="M327.5,109h5.3v-1.9h-7.4c0,1.9-4.5,4.3-8.4,4.3-3.8-.2-6.8-2-8.2-4.3h-6.3v1.9h5c.7,2.2,5,4.6,9.5,4.9,4.5.2,8.9-2.5,10.4-4.9"/>
  <path class="cls-1" d="M925.3,550.8c3.1,0,12.6-4.6,14.4-4,0,8.4-10.9,13.8-15.1,20.6,2.5.3,7.1-.4,10.6-.7,0,.3.3.5.3.7-6.2,13-20,15.1-26,28.7h-.8c-3.2-4.1-6.4-8.3-9.5-12.4,16.3-56.7,8.2-96.2-15-149-9.9-19.6-22.1-40.6-29.2-59.4,2.7-1,8.1-4.8,10.5-4.8,18.7,36.4,38.3,73.3,54.4,113,3.8,3.4,19.1-2.3,5.7-9.9-12.4-7,14.9-20.9,12.7,9.6-.9,3.3-10.5,19.5-10.5,19.5,4,0,9.5-7.2,13.9-6.5,0,10.9-4.6,22.5-11.7,31.8,0,.5,0,.6.2.6,3.9-2.2,7.7-5.5,13-7.2-2.8,12.7-9.1,20.5-18,29.4M924.6,620.8c0,.4-1.3.4-1.8.4-53.6-9.4-83.9-70.4-109.4-109.9-2.5-3.8-16-23.8-16-26.6,3.3,1.8,6.8,3,9.9,4.4,18.3,30.1,54.2,102.9,96.4,114,0-.1,0-.3.2-.7-39.5-52.3-73.5-114-104.2-168.8,1.4-1.9,2.2-3.9,5-4.6,23.5,36.9,44,78.6,68,118.3,16,24.6,31.5,49.8,51.8,73.6M791.6,622c-12.3-11.5-19.5-21.6-27.3-34.7-58.4,9.7-74,60.8-50.8,111.9,2.2,3.1,4.8,6.3,7.4,9.3,9.8.9,17.1,5.5,13.4,18.1-4.6,8.6-38.9,77.4-47.3,80.2,0-.8-.2-2.1-.2-2.8-.1-.1-.8-.3-.8-.6-6.6,10.5-13.6,25.7-27,28.3-13.1-1.2-21.1-9.1-31.1-6.6-4.1-3.3-12.4-8.9-13.5-11.8,5.3-2.7,3.7-9.2,12.6-12,5.6,0,23.9,3.2,17.1,15.4,2.8,0,5-4.9,6.2-7.2,17.5-4.4,30.5-8.3,42.6-23.2,8.8-14.2,28.2-47.1,23.7-63.4,2.6,0,5.1.1,7.8.4.2-.3.3-.4.6-.9-18.9-2.8-30.4-31.7-37.1-45.4,2.2-22,5.3-41.8-.4-61.3,0-12.8,39.6-29.2,46.7-34.7,12.7-9,35.4-32.5,15.4-44.9,3.3-12.1,3.3-16.9-4.3-25.8.4-7.4-.2-12.7-1-18.3,3.4-3.9,4.9-7.3,9.3-8.9,14.8,30.9,19.2,68.1,35,101.8,21.7,36.3,56,53,93.6,22.9,2.2,0,13.4,5.8,15,9.7-31,30.9-72.4,30-105.4,4.5M802.9,676.4c5.6-3.7,14.1-9,17.6,3.1,0,21.7.4,43.8.4,65.1s3,17.6.3,29.6c-1.2,4.6-6,11.2-11.6,9.9-.7-1-1.7-2-2.4-2.6-5.9,17.6-9.9,36.5-33,35.6-10,6.1-13.3,10.1-24.5,8.1q-11.8-4.6-15.2-6c0-20.1,15.9-22.6,30.4-12.7,0-.6.2-1.8.4-2.3,44.7-16.5,51.4-66.6,45.4-105.8-2.4-9.7-5.1-10.9-13-11.2-30.2-23.8-51.8-49.2-43.9-88.9,3.9-3,8.2-7.9,13.4-.2-3.1,30.3-3.4,67.9,35.6,78.4M740.7,833.1c-1.8-3.1-1.3-4.6-1-6.7,1.5,0,4.7-.3,7.1,2.2-.7,1.6-4.6,4.9-6.1,4.5M713.1,813.3c0,1.8-1.6,5-3.1,6.9h-.9c-2.1-3.9-2.3-6.6-2.1-9.4,1.3,0,3.1.7,6.1,2.6M729.6,822.4c0,2.7-1.7,5.5-3.4,7.8h-1.1c-1.6-4.3-2.4-8.4-2.7-11.1,0-.5.4-.5.6-.5,1.5.6,3.8,1.5,6.6,3.8M719.7,810.1c1.5-1.1,2.7-1.5,4.2-2.1,0-10-5.4-13.3,8-16.4,3.3,0,7.5.4,11.5,1.6,9,5.3,27.5-12.4,36.3-16.2,28.8-3.9,12.7-53.6,8.4-69.6,1.3-11.6,8.8-26.7,19.9-12.6,6.8,31.8-.8,91.4-38.1,103.7-26.4,2.2-29.1-7.8-38.1,17.1-.5,0-.6.2-1.1.2-5.9-1.9-9.9-2.4-11-5.8M779.3,675.8c4.9,4.3,10.4,7.9,14.9,12-23.8,20.7,10.4,53.3-5,79.9-5.6,7.3-12.4,7.1-16.9,2.1,0,3.1,5.3,5,1.8,8.4-14.9,6.6-25.9,10.3-40.7,10.3-19.3,2.4-10.4,17.6-18.5,20.6-3.8-1.5-6.8-2.7-8.4-4.5v-1.4c10.9-3.8,2.1-25,21.9-19.5,16.4-.7,30.4-6.2,40.8-19.9,1.4-18.8,4-40.7-1.6-57.8-16.1-16.2-38.3-24.6-57-32.7-9-11.7,4.4-47.3,10.6-57.5,4.9-6,20.2-18.2,28.7-15.9-2.7,37.5,2.1,48.3,29.2,76.1M734.6,734.4c-.1-1-.1-1.4-.1-2.2.1-.3.1-.5.3-.6,2,0,14.2.9,15.1-4.3-.9,0-1.6,0-2.4.2-8.8-9.7,14.5-11.4,6,7.6-6.1,7.8-12.8,9.3-21.9,9.3s-1.6-.1-2-.1c0-7.6,13.1-1.8,16.8-9.2-3.5,0-10.3,0-11.8-.7M725.1,752.5c0-1.4.5-2.5.6-3.2,5,0,12.7,0,18.8,1-6.2,6.3-14.6,9.5-22.7,9.5v-.5c4-6.6,21.6-5,3.3-6.9M718.6,764.3c0-1.6.3-1.6,1.1-2.9,3.3,1.2,6.9,1.9,10.5,2.6,0,.4.5.4.5.4-2.5,3.8-13.3,10.9-16.5,9.8,2.6-4.9,4.1-5.5,10-7.8.3-2-3.9-1.4-5.6-2M701.8,859.1c-4.1-3.7-2.7-15-3.5-18.3-5.8-8.9-28.3-.3-32.8-4.4,16.9-18,32.8-34,44.6-55.6,6.6-4.8,23.9-8.3,26.6-18.1-1.3-.1-2.5-.5-3.8-.5v-1.2c7-3.3,12.7-6.7,17.1-13.8-2.2-.3-4-.5-6-.7,8-7.7,17.4-11.4,12-25.3-8.2-6.3-12.7-2.8-12.7,6.5-.2,0-.5.1-.5.6-10-6.7,3.2-18.1-17.1-23.5-9.2-6.2-11.4-15.4-14.5-23.4,12.2,0,48.6,17.4,54.3,30.6,3.4,31.2,10.2,58.9-27.1,67.8-22.7,0-24.4-3.1-30.5,17.7-6.1,4.4-6.9,6.1-3.1,13.2.4,3.9-.6,11.2,6,13.4,1.5-2.2,2.7-4.2,4.3-6.1,6.3,0,4.6,8.7,8.3,15.1h4.1c1.5-2.8,3.2-5.7,4.8-8.1,5.2,0,4.4,5.7,6.4,11.7h4c-2.8,4.1-34.6,22.5-40.9,22.5M724.2,866c7.7,0,23.3-5.2,32.3-7.1,0,1-4.8,4.5-5.9,5.4-20.6,12.4-43.8,27.2-67.8,27.2-11.4-1.2-11.8-2.2-12.4-11.1-.9-4.3-3-10.4-2.1-13.3,22.7,0,32-1.2,54.8-13.4,3.8-1.4,14.9-9.5,16.9-10.5,0,4.7-12.3,18.7-15.7,22.7M681.6,852.8c1.6,0,12.7-2.5,12.8-2.5.7,3.1,1.3,6.4,2.1,9.8-7.5,2.7-13,3.4-19.9,4.1-17.7-1.4-12.9-14.4,5-11.5M663.7,866.3c-2.6,0-5.4,0-8.1.4-9.5-7-18.9-17.9-26.2-25.2.8-.5,37.6-1,54.1-.7,6.4.3,10.1,2.4,9,5.2-19.7,9.5-31.8-10-28.8,20.4M641,833.1c3.1,1.2,6.4,2.4,9.7,3.5-9.5,0-18.8.4-27.9.6-6.1-11.5,11.7-9.3,18.2-4.1M647.4,868.8c-11-8.9-20.7-20-30.6-27.1-4.9-.1-4.4-.7-6.5-3.2,11.5-6.9,30.7,19.9,39.7,27.2-.1.6-1.5,1.6-2.6,3.1M626.4,867q-15.3-14.6-15.4-15.2c3.2.2,7.5-1.9,6.5-6.6,0,.4,23.9,21.6,23.9,21.9h-15ZM634.1,882.7c-9-8.9-34.1-26.3-30.5-37.6,2.2,0,3.3,4,5.4,7.2.7,1,2.5,2.2,2.9,3.1,13.2,12.4,23.7,20.9,25.3,24,0,0-2.2,3.3-3.2,3.3M611.9,866.7c-13.7,0-27.6,0-41.5.3-1.9-5.7-9.2-22.7-8.1-24.6,13,0,26.5,0,39.7.4-6.7,13.7,11.7,20.1,9.9,23.9M623.5,915.2c-1.8,2.1-4.4,2.6-5.9,2.6-36.8-22.9-65.6-48.4-95.1-75.5,0-.7,0-1.3.1-1.5,6.6.6,22.8,17.5,29.2,23.5,20.8,18.2,47.4,33.7,71.7,50.9M544.4,876.1c0-.6-.1-.9-.1-1,14.1,2.2,20,5.3,33,17.4-3.6.3-27.7-15-32.9-16.3M565.4,892.7h-3.7c-16.4-1.7-38.1-8.3-49.8-16,0-2.5-.4-4,.5-5.2,15.7,7.1,34.8,14,53,20.2v1ZM514.6,915.6c-3.8,7.6-8.8,7.1-14.8,7.7-7.5-.6-11.1-5.1-12.9-6.4l12.9-11.8c1.2-.2,10.5,6.3,14.8,10.5M465.4,878.9c-.6-.2-.6-.6-.9-.6v-1.5c3.3-2.8,19.3-18.5,24.2-14.9-6.6,4.5-17.3,15.6-23.3,17M466,883.9h-2c-4.7-1.4-15.5-4.3-14.7-9.6,4.9,1.5,10.6,4.5,17.2,7.2-.1.8-.5,1.5-.5,2.4M451.2,896c-3-5.1-22.8-42.8-14.4-42.8,4.4,6,16.9,32.9,16.9,41.7-1,1.2-2.5,1.2-2.5,1.2M411.4,923.3c-.5-.1-.6-.6-.7-.6-.3-.6-.3-1.2-.3-1.4,4.7-4,32.2-29.6,36.5-29.6.3,1,.5,1.9.9,3.1,1,1.9-31.5,27.7-36.4,28.5M400.3,915.2c13.6-11.6,27.7-22.7,41.5-33.8,1,1,1.4.3,1.9,3.5-3.3,1.3-38.4,31.6-42,32.9-2-1.8-1.4-2.6-1.4-2.6M393.7,909.6c-.7-1.7-.3-3-.7-3.7,13-7,32.6-30.1,43.8-29.8-1.8,1-38.2,34.7-43.1,33.5M389.7,898.5c-6.6-1.8,30.9-31.5,35.3-27.2-4.6,4.3-29.8,24.4-35.3,27.2M439.5,873.5h-2.7c-5.5-1.2-11.2-4.1-15.4-5.7v-2.1c2.1-2,15.5,1.4,18.1,7.8M384.7,866.3c1.5-5,14.5-11.2,13.9-23.9,16.8-.1,33.7-.1,50.9-.1-2.1,2.5-4.9,5.1-9,8.4-3.7.8-6.9.8-8.2,2.5,0,4.4,2.1,2.8-3.1,6.9-2,1.8-5.2,1.8-8.9,2.6-1.6,1.5-2,3.2-3.3,3.5-10.8-.1-21.7,0-32.3,0M361.5,881.7c-.6-.6-1.6-2.5-2-3.4,8.9-8.4,18.6-16.9,27.9-25.6,3.4-4.5,1.8-7.7,7.3-9.6,3.2,10.6-32.3,37.7-33.2,38.6M358.8,866.3c0-3.4,16.8-17.1,21.2-21.2,1.3,3.1,1.3,3.7,5.7,5.1-4.4,6.8-11.9,11.7-18.6,16.8-2,1.3-4.6-.7-8.3-.7M349.6,868.3l-2.4-2.4c4.4-4.5,30.4-36.8,41.4-28.8-1.1,1.1-2.4,1.9-3,3-13.7,1.6-28.5,28.2-36.1,28.2M340.3,866.3c0-8.9,6.2-10.9-3.2-14.9-10.2-1-22.9,2.5-24.1-6.6,2.5-5.3,44.5-2.4,53.7-2.4-4.7,3.4-22.5,23.6-26.4,23.9M337.5,861.4c-8,4.1-15.1,3.1-22.5,3.1-2-.6-4.4-1.2-6.2-1.4.5-3.4,1-6.6,1.8-10.3,1.7,0,5.3,2.2,9.5,3.2,5.3-.3,20.2-5.7,17.4,5.4M319.1,889.3c-34.1-3.7-58.7-17.7-82.6-39.4-.1-.4-.1-.7-.5-1,5.5,0,29.8,15.9,34.7,13.7-3.5-5.8-11.4-16.7-10-21.1,20.9,13.1,42.7,28.8,71.1,26.4q4.5-1.2,5.5-1.2c-3.8,16.6.9,22.6-18.1,22.6M427.2,803.4c2-1.5,4.1-1.4,4.9-.2.7.6.9.6-1.4,3.3-8.3,10.3-32.8,31.8-42.6,39-2,1.2-3.3,1.6-3.7,1.9-1.4-1.5,0-3.1,0-3.4,7.1-6.5,33.6-32.8,42.8-40.6M458.2,763.3c1.3-.5,15.8-2.3,14.4,3.5h-4.8c-6.3-6.3-40.4,27.2-44.4,38.9-1.1.1-1.8.1-2,.3.9-17.9,25.9-31.2,36.8-42.8M422.6,768.6c2.5.2,12.5,4.9,14.9,8.7-1.2,1.5-2.1,1.6-2.6,1.6-11.6-9.5-11.9-9.3-12.3-10.3M415.7,747.1c2.8,0,24.1,18.5,29.4,23.8-.6.5-.5.4-.7,1-.7,0-1.4,0-2.1.4-7.9-3.7-23.7-19.1-26.5-25.1M412,724.6c3.4,3.1,36.7,33.4,39.7,38.9-.6,0-2.1,2-2.6,2.2-14.3-10.8-29.6-26.7-37.1-41.2M396.5,682.7c7.5,0,39.3,47.1,43.3,59.5-.2,0-2,1.4-2.7,1.5-10.5-9.6-34.4-50.2-40.6-61M423.8,703c-5.3-7-10.7-14-16.6-20.6l1.6,1c4,2.3,8,4.6,12.1,6.6.1.9.2,1.8.4,2.7.8,3.4,1.6,6.9,2.4,10.3M389.2,658.5c-55.8-51.4-68.9-105.7-70.2-177h89.9v7.1h-81.4c-1.3,66.7,29.1,133.9,64.9,162.4,40.3,32.8,79.3,42.1,98.2,41.5v-103c.1,0,5.6,1.8,5.6,1.8v110.6c0,0-3.6,0-3.6,0-41.3-2.6-72.6-18.2-103.4-43.4M351.6,623.4c2.5,1.6,27.1,27.1,13.2,31.5-10-3.9-14-23.8-13.2-31.5M388.2,813.8c-.3,0-.6,0-1.1.2-19-20.3-22.7-31-27.2-57.3-1.9-36.8-4.7-73-8.3-108.1,0-1,.4-1.3.4-1.8,2.1,3.2,3.9,6,7.1,10.2,4.9,14.6,2.2,82,18.1,92.3,6.6-17.1,1.2-42.6,0-58.6-1.3-11.2-6.7-32.3-5.1-41.3,1.5,1,2.8,1.5,3.8,2.7,6.9,51.9,24.8,108.4,12.3,161.6M326.2,576.9c6.3,0,4.9,32.8,10.5,39.4,1.7-2.4,3.2-6.6,5.3-7.8,10.8,5.5.6,44.4-7.1,48.1-11.5-24.8-8.8-54.6-8.8-79.8M341.7,826.1c-.3,0-1,0-1.3.3-35.2-38.1-21.7-97.4-18.8-143.2.2-12.3,0-26.5,1.9-36.3q.9.8,4.9,10.2c0,2.4-5.3,100,11.2,100,18-26.6-5.3-75.1,3.3-100.3,1.4-2.2,3-4,4.7-6.2h.7c3.9,45.3,19.8,130.3-6.6,175.6M304.7,801.3c0-.7-10,26.7-16.8,26.5-17.3-30.4-5.6-81.9-1.9-112.9q11.1-75.5,11.5-76.4c1.3,3.8,3.1,7.6,4.6,10.9-.7,19.8-19.5,85.9-5.7,103.6,10.6,0,16.1-88.7,16.6-94.4,1.6-3.2,3.3-6.5,5.7-8.2-1.1,49.2-2,101.6-14,150.8M246.9,811.8c-.6-.3-.9-.3-1.5-.3-10-27.3-3.2-54.4.9-81.1,7.5-34.6,16.9-68.2,26.1-100.3.5-.4,1.2-.6,1.3-.6q.4,2.6,2.8,9.4c-2.8,27.1-24.5,66.4-15.2,94.6,24.7-16.1,15.2-71.8,31.5-95.6,0,1.4,0,2.7.2,3.9-7.4,54.6-11.5,123.2-46.1,170M213.8,775.6c-.9.5-1.3,1-1.6.9-3.5-3.4-3.3-17.9-3.3-20.5,5.4-52.3,26.4-100.1,45.5-147.9,0,0,.2.3.6.4,1.9,19.1-12.9,52.3-19.3,71.6-1.8,7.3-6.5,21.4-2.5,30.1h1.3c17.5-23.1,21.4-52.1,29.8-79q4.7-4.9,5.3-4.9c0,3.8-2.8,9.1-4.1,14-13.2,49.1-21.3,94.2-51.8,135.3M186.8,739c-3.5-38.8,21-78.2,34.1-110.6q11.4-31.3,11.8-31.9c.3,0,.3.1.6.3,1.3,13.4-30.2,80.9-22.7,88.5,16.7-20.1,25.2-51.4,33.2-75.2,2.2-2.6,5.2-5.4,7.7-7.8,0,10.8-46.5,132-64.7,136.6M182.7,699.9c-1,3.5-2,6.9-2.7,10.5-.3-4.9-.7-9.7-1.1-14.6-.6-6.6-1.2-13.3-1.3-20,.9-2.1,1.7-4.2,2.5-6.4l1-3.4c.6-2.3,1.2-4.6,1.6-6.9.4-2.3.8-4.6,1-6.9.4-4,.7-8,.9-12.1.2-5.8.1-11.6.1-17.4,2.4-4.1,4.8-8.3,7-12.6,1.6-3.3,3.2-6.7,4.6-10.2.8-2.2,1.6-4.4,2.3-6.7,1.2-4.3,2.2-8.6,2.9-12.9,3.5-2.7,6.9-5.6,9.9-8.9.6-.7,1.2-1.5,1.8-2.2,1.4-1.8,2.6-3.7,3.7-5.7,1.3-2.4,2.4-4.9,3.3-7.5,1.8-2,3.8-3.8,5.9-5.6,2.2-1.9,4.5-3.8,6.5-6,1-1.2,2-2.4,2.9-3.7,1-1.5,1.8-3,2.5-4.7.5-1.2.9-2.3,1.2-3.5.6-3.2,1.2-6.6,2.9-9.5.3-.4.6-.8.9-1.2,1.4-1.5,3.1-2.6,4.7-3.7,1.8-1.3,3.5-2.7,5.2-4.3,1,.5,1.9,1.2,2.5,2.1-4.9,13.2-9.9,26.2-15,39.2-2.3,5.8-4.6,11.5-6.9,17.3-13.3,32.8-26.9,65.5-39.9,98.4-3.8,9.7-7.4,19.4-11.1,29.1M175.9,662.8c-.7,1.5-1.9,3.2-2.5,5.4-.2,0-3-5.9-3-5.9,3.8-10.6,3.2-19.1,2.7-31.8-3.9-37.6-19.5-76.8-31.6-113.1,0-3.1,2.7-8,3.9-10.4h.9c18,51.4,39.3,99.3,29.5,155.8M163.4,756.5c0-1-1.3-.6-1.3-1.5,10.5-31.5,5.3-60.2-5.2-95.9-12.2-41.5-31.3-81.2-40.5-113.6.7-5.3,1.4-11,2.4-16,1.4-1.2,40.2,109.8,47.2,132.1,3.7,17.9,16.9,79-2.6,94.8M157.3,761.4c-1.3-2-9.8-36-18.6-67.2-3.1-8.9-6.1-18.2-8.9-27.1-49.3-107.4-88.5-198.9-57.3-315.8,26.5-79.9,70.9-155.1,156.3-180.1,36.1-5.1,71,1.4,61.7,47.9-2.7,8.6-25.3,56.8-36.9,50.7,9.5-19.7,16.9-26,18.7-48-11.1-4.1-13.5-5.7-17.3-14.3-13,.4-24.2,1.3-29.3-11.4-5.3,0-11.5,4.1-16.9,5.2-7.1.1-14.7.1-22.1.3-65.6,55-93.4,108.6-107.2,192.2-4.5,43.8-5.2,82,5.5,126.3,19,65.8,52.9,128.1,70,196.3q3.1,13.8,3.4,14.4c3.8-34.6-18.7-82-28.4-113.1-7.3-18-14.4-36.1-21.7-54.2,0-5,3.7-7.4,6-10.4.9,2.4,20.7,52.7,35,97.2,6.9,21.7,11,31.5,14.5,57.4,0,2.4-3.9,56.4-6.6,53.5M298.8,258.2c.6,1.6,1,3.3,1.8,5.2-7.3,3.3-15,3.2-22,3.2-3.5-.3-6.2-1.3-7.9-1.9,9.1-1.3,18-4.9,28.2-6.5M307.5,246.7c1.9,11,10.9-1.8,14.3-2.5,1.2,1.8,3.3,3.5,6.6,4.7v1.2c-6.9,6.6-14.3,12.7-23.3,12.7h0c-8-5-3.3-14.5,2.4-16.1M325.1,217.7c.8,4-3.3,19.9,7.9,15.8,5.3-2.8,5.9-12.7,6.8-16.8,1.9,0,5.1,1.5,7.8,2.7-3.3,13.6-4.5,24.1-19.5,27.3-9.9-2.5-10.6-26.7-3-29.1M312.1,137.1c4.2-1,8.5-1.7,11.7-5.5,6.1-24.5-43.7-17.4-52.9-11.5,7.1,0,17.7-3.1,27.5-3.1,3.1.4,28.4,3.6,20.7,14-9.3,4.6-24.4-.4-32.6-2.5-3.4-3.8,19.1.9,22.5.9.1-.5.1-.9.5-1.5-6-6.4-32.8-6-36.1,3.1,0,.4-.4,3.9-1.4,5-20.4-24.5-6.9-41.4,23.5-41.4,5.5,6.3,9.7,4.6,13.6,1.9,2.6-1.4,4.7-3.1,7.8-3.1s2.2,0,3.6.7c10,4.3,21,9.8,29.2-4.5-7.5-1.5-14.5-3.7-21.5-7.7v-.5c23.5-4,63.9,19.4,84.1,28.7,0,15.2-19.8,16.7-30.2,12.9-4.4,15.7-11.6,21.4-29.2,17.9-1.3-.6-2.4-.7-3.2-1.2-6.7,11.7-12.1,14.6-24.7,15.4-3.3-8.9-9.8-13-12.8-18M299.7,89.6c12.4-12.7,28.4-4.5,43.4.9.4.3,2.4.4,2.7.5-2.2,5-6,6.8-14.4,5.8-13-4.6-12.8-10.2-25.7-.5-.9.1-.3.7-3.2.1-2.8-.9-4.1-3.7-2.8-6.8M415.2,111.2c.8.3,1.9.6,2.7,1.1-1.6,16.7-15.4,19.1-29.9,20.5-9.8,16.5-16.7,16.5-34.6,17.4-8.6,9.2-13.1,11.7-25.4,12.6-1-.2-1.9-.2-2.6-.2-.3-1.3-.3-2.2-.3-3.3,13.8-1.6,17.1-3.3,26.4-14,16.8,1.3,25.7.6,33.1-15.9,9.5-.7,20.1-.3,27.1-9.6,1.1-2.6,2.2-5.5,3.5-8.4M427.1,143.4c2.4,0,4.6-.5,6.8-.5,1.8,1.8,3,3.8,4.5,6-2.1.7-5.3,1.2-7.1,1.4-15.5-1.1-19.1-6.4-27.5-16.3,12-6.3,10.9,5.2,23.3,9.3M446.1,169.5q-.1.4-.1.8h-1c-4.5-2.4-12.3-13.3-11.7-15.3,8.4.3,7.8,5.8,12.8,14.5M457.1,191.2s5.2,6.6,4.4,9c-3.5.7-6.5.1-9.1.1-14.5-4.1-22.9-12.4-17.9-25.9,2.3,0,9.5,15.9,22.6,16.8M477.8,244.3c1.8,4.6,3.5,9.4,5.7,14-2.7,1.9-5.7,1.1-8.2,1.1-11.2-2-22.2-14.5-24.8-22.5q4.6-6,5.6-8h1.2c4.3,6.6,9.8,15.5,20.6,15.5M487,283.3q2.6,9.8,2.4,10.4c-2.5,0-5.3,0-7.3.3-9.2-3.2-7.3-14.7-7.3-19.8.9,0,9,7.1,12.2,9.1M530.3,178.1c0,1.9-7.2,14.5-8.3,17-10.6,5.1-10.4,6.4-12.3,17.4-1.1,26.4-7.1,52.8-7.6,80.8-1.1.9-8.4.6-8.4.6-1.8-1.6-5.3-26.9-5.6-29.2,23.9-30.3-7-80,42.1-86.6M548,165.2c.6,2.7,1,7.1,3.7,10.9,0,5.2-16.4,22-14.2,26.3,9.3-7.2,21.9-16.3,33.6-18.6-3.2,6.3-6.8,12.2-9.8,18.6-6.9,4.6-23.9,10.5-22.7,22,10.9-7.4,16.7,13.6.9,13.6-38-6.4.3-77,8.6-72.7M590,120.6q.6,1.3,1.3,12.2c-6.5,2.6-17.5,8.3-19.3,16.3,3.2-.6,27.8-8,30.5-.6-1.6,2.8-2.7,5.7-3.9,8.5-13.8,0-26-1.8-34.3,10.5,6,0,13.8-5.1,12.7,8-2.4,4-6,4-9.6,4.7-35.1-7.8.7-59.7,22.6-59.7M622.3,98.4c.7,2.2,1.3,4.7,2.4,7.5-6.5,3.7-12.8,3.7-17,9.6,8.5.5,20.2,2.6,29,8.5-13.6,13.9-26.4-5.7-33.1,4,5.6,0,7.7-2.7,10.2,6.5-.9,4.3-4.6,6.4-9.1,6.4-26.3-8.6-1.4-42.5,17.7-42.5M626.8,92.2c3.3,9,3.4,9.8,12.3,16.5,4.3,13.2,8.6,11.7,20.3,19.9,2.3.7,6.4-.7,5.6,5.1h-1.9c-18.1-3.7-37.4-25.9-39.6-41.9,1.2,0,2.2.2,3.3.5M643.4,98.8c4.5.8,9.3,2.4,18.5,3.8,9.1.8,23.4,1.9,30.1,5.9,10.5,6.5,14.8,12.3,7.9,26.6-5.1,6.4-9,6.9-16.4,6.9-13.5-5,3-17.4,5.9-7.1.3,0,.4,0,.8.2,6.6-22-15.3-23.3-24.7-9.2-3.3,0-7.6-1.4-8.8-5.1-9.2-.2-10.6-10.5-14.4-14.6-5-4.9-12.8-7.9-12.2-12.5,2.8.9,9.3,3.8,13.3,5.1M735.9,131c0-2,1.5-3.9,3.7-3.9s4.3,1.6,4.3,3.8-1.7,3.8-3.9,3.8-4.1-1.8-4.1-3.7M634.1,82.6c8.9-4.6,10.3,3.3,11.2,6.4,1.4,1.5,3.5,1.9,5.8,1.9,8.3,0,18-.4,27.2,1q9.3,2.7,10.2,2.6c-11.4-5.6-26.4-5.3-37.4-5.3-11.1-3.3-3.8-13.3.8-13.3,8.7,0,4.7,8.8,4.5,9.3,13.4,1.4,25.1.7,39.2,5.7.1,0,.8,0,1.2,0-11-4.3-19.6-5.7-29.3-5.8-9.6-.3-9.8-8.4-5.8-10.8,3.7-2,11.1,0,7.7,7.4.5.2,1,0,1.2.2,18.5,2.1,33-3.9,43,15.9,3.9,4,14.4,4.1,16.4,11-7.7,3.5-11.8,3.8-19.3,4.1-2.4-.4-4.1-.7-5.9-.7,4.1,8.3,12,9.6,19.8,9.2,11.6-.7,23.2-4.1,24.4,11.4l3.9,3.9-2.7,3.5s-3.3-1.6-4.5-2c-1,.9-3.3,1.8-4.4,1.9-9,0-11.6-5.8-10.5-11.7h2.4c.5,10.2,7.7,9.8,11.8,7.4l4,2.4c.2-.6,1.2-1.9,1.6-2.3-1.6-.9-2.8-1.6-4.1-2.4-.3-8.4-4.9-11.2-11.7-8.1-4.7-.3-9.1-.9-13.9-.9v2l7.2,1.1c.7,3.2-.6,7.1,1.9,10.5,1.2,2,4,4,11.5,4.6,2-.2,3.4-.9,5.9-.9,7.1.7,16.5,4,23.5,9.3v4.5c-5,0-8.7-2.2-12.7-3.3-22.7,0-23.3,26,0,26,0,0,.1-.2.6-.2-21.6-4.6-20.5-24.1-1.3-24.1,3.9.9,10.6,4,15.1,4,0-2.8,0-5,.2-7,.5-3.7,4.3-4.3,7.2-3,6.2,2.8,2.1,10.7-4.4,17-2.4,10-4.7,17.1-9.1,20.2-4.2,3-10.4,2.3-20.5-2.9-21.1-3.9-23.7,25.3.3,15.4,9.2-2,12.3,1.7,12,6.1-.3,4.6-4.4,10-8.8,10-14.4-7.4-17.3-6.1-31.1-4-2-3-5.3-4.1-7.8-6-1.8-6-4.1-6.6-5.9-7.7.3-2.1-3.3-9.1-6.5-9.7.1-4-1-8.7-4.7-11.1,2.1-5.5,0-9.8-4.7-11.4,1.4-2.5.2-7-3.9-8.2,0-6.5-2.7-6.5-3.2-7.4-.6-.6.1-2.2.1-3.2,20-.8,26-15,22.4-25.1-3.2-9.8-10.2-13.4-19.9-17.1-7.1-2.8-37.2-1.6-47.9-9.2-3.5-2.4-4.7-6-2.2-11.1M741.8,117.4c-6.4,0-13.1.3-19.4.3-3.3-.3-7.5-1.2-8.7-3.4,4.9.6,31.6-7.7,28.1,3.1M776.5,144.8c-2.1,1.3-5.2,3.8-6.9,4.3-4.6-2.5-9.3-4.6-13.7-7-.9-.9-6.2-18.3-6.5-19.4,4.8,2.2,25,14.9,27.1,22.1M748.7,194.4c-2.2.6-3.7.9-6,1.6-2.8.9-5.1,1.3-7,.9-2.1-.5-4-2.2-3.4-5.4.5-2.7,3.3-6.2,8.7-6.9.9-.1,2.7-.3,4.3,0,2,.4,3.5,1.5,4.7,2.1,5.9,2.5,12.3,2.7,15,4.2.2.1.3.2.5.3.2.2.3.3.5.5,0,0,.1.1.1.2,0,.1.1.2.1.3,0,0,0,.1,0,.3h0c0,.4-.7.5-1,.3-1.8-.9-5.6-1.9-10.2-3.2-2.2-.6-5.4-1.2-7.7-2.1-2.6-1.1-4.1-1.9-7.4-1.6-3.9.4-5.2,3.6-5.6,5.3-.4,2,.2,3.4,2.1,3.5,2,.1,4-.4,6.2-1,1.7-.5,3.7-.7,5.2-1,6.5-1.1,13.3,1.4,16.5,2,.1,0,.3,0,.4,0,.3,0,.4.3.5.6-2.5,2.7-7.7-3.6-16.6-1.1M729,253.7h-1.1c-19.8-7.6-27.1-27.7-18.8-44.9,4.4-4.5,9.3,1.5,6.6,9.4-2.4,8.3,1.6,18.7,2.7,20.9,2.7,4.5,10.5,14.3,10.5,14.6M745.6,303.7c2.2-21.2,29.8,4.7,3.3,12.4h-7.4c-24.1-2.1-17.4-15.3-29.1-23.7-2.4-1-4.3-1.8-6-2.4.6-3.5,1.8-6.7,2.7-10,.3-.4.6-.4.6-.4,10.3,3.5,14.8,26.4,21.6,26.4,3-17.4-8.5-34.7-14.9-47.6,29.7,3.1,12.7,41.4,29.2,45.2M752.8,292.4v.7c-5.3.6-5.2,1.2-8.4,5.3-.3-.4-1-.4-1.5-.4-1.6-4.7-1.6-7.7-2.1-12.1,2.6,0,8.4,4.4,12.1,6.4M732.2,251.9c16,0,61.1,58.5,65.8,53.3-11-16.2,20.2-22.7,14.6,2.9-6.3,10.9-18.8,10.8-28.7,10.9-8.7-1.2-16.5-3.2-22.5-6.8,0-4.7,5-6.5,2.5-12.8,3.4,0,16.3,10.4,21.5,7.9-.7-1.8-4.5-3.1-5.2-3.3-18.1-14.6-29.5-35-48-45.5,0-.4.1-.9.6-.9.6-.3,1.4-.9,1.9-.9,0-2.4-2.4-4.5-2.5-4.9M805.2,349.3c-18.6-2.1-30-5-34.4-21.6,10.8,0,25.8,18.3,42.1,8.5-3.3-.2-6.1-.6-9.2-.6-7.1-3-8.3-5-11.8-9.4,3.3-.8,6.7-1.5,9.9-2.4,5.8,5,15.5,8.3,21.5-.5-5.6.5-11.5,3.8-10.3-9.9,20.2-20.2,30.9,35.7-7.8,35.7M603.1,827.2h.7c0-.1,1.1-.7,1.1-.7.9-.6,1.8-1.2,2.6-1.9,1.4,2.7,3,5.2,4.5,7.8-1,.2-1.9.3-2.9.5-2-1.9-4-3.8-5.9-5.7M599.3,811.8c3.7-1.6,6.9.7,8.3,3.4.6,2.7-1.8,4.3-5.6,7.2-3.4-3.8-2.8-7.9-2.7-10.6M594.8,813.2c.1.9.2,1.8.3,2.8.2,1.5.4,2.9.7,4.3-1-1-2.1-2-3.1-3,.6-1.4,1.3-2.8,2.1-4.1M589.9,811.2c-3.3-3.2-3-8.6-2.2-11.7,4.4,0,6.7,2.1,6.7,4.6s-1.8,7.1-4.5,7.1M567.9,806.3c-1.9-2.4-2-3.2-1.3-3.9.5,0,1.3-.6,2.6.9,10.8,9.7,44.2,43.3,46,44.6-.6,0-1.6,1.9-2.7,1.9-.5-.7-34.7-32.4-44.6-43.5M567.4,816.7c2.1,0,4.4-.5,5.9.7,6,5,14.8,13.4,21.2,19.8,0,0-25.3.2-26,0-1.4,0-1.1-20.4-1.1-20.5M524.2,775.9c11.5,1,27.5,23,40.8,33.4,1.6.2,2-.3,4.9,1.4v2c-2.5.9-5,.9-7.1.9-8.4-5.6-37.6-32.8-38.6-37.6M552.3,809c7.3,3.1,11.8,10.1-.4,10.1-3.4-5-4.6-7,.4-10.1M474.5,782.3c.8-1.6.2-1.6,2.5-1.6.8.9,5.4,6.1,3.3,9.3h-1.8c-.7-1.9-3.3-6.2-3.8-6.2-.2-.6-.2-1-.2-1.5M479.7,797.5c-.9,0-1.8,0-2.7.1-3.8-3.7-7.5-4.6-10-6-.4-.9-.4-1.4-.4-2.4,2.2-.9,14.2,5.7,13.1,8.3M479,811.9c-15.7-9.1-15.1-8.6-20.2-11.9-.1-.9,1.1-2.7,1.1-3.4,3.3-3.5,15.5,7.9,21.1,12,0,2,.4,2.8-2,3.3M468.8,820.9c0,.1-.1.1-.1.6-3.4,0-6.4,0-9.7.3-7.2-.8-13.6-3.9-19.2-5.9,0-4.1,5.7-8.7,9.5-9.1,5.7,4.4,12.2,9.4,19.5,14.1M451.8,803.1c4.3.8,21.4,12.7,27.8,16.9,0,.8-4.3.5-6.4.8-3.6-2.6-22.6-14.4-21.4-17.7M496.8,777.2v43.8l-13,.5v-44l13-.3ZM514.6,777.2l-.3,44.3-12.8-.6v-43.4l13-.3ZM522.8,792h-1.4c-7.2-7.2,17.5-14.1,1.4,0M528.5,790.3c1.7-1.3,2.3-.8,3.5,0,2.1,4,15.9,22.5,15.9,28.9l-8.3.7c-5.4-3.2-11.7-28.3-11.1-29.7M533.5,822.4c-1.5,0-2.9.3-3.9.3-7.9-3.4-12.2-21.5-12.8-28.8h1.2c4.5,7.2,12.9,19.5,15.5,28.5M483.8,707.3q11.5,1,12.9,1.3v58h-12.8c-.1-20.1-.1-39.5-.1-59.2M538.2,603.7c-.3,1-.6,2.1-1,3.1-.7,1.6-1.5,3.2-2.2,4.8l.8,3.1.6.7,1.1,2.5h1.3c0,0,.6,9.2.6,9.2.3,3.2.7,6.2,1.6,9.3,1.8,5.1,4.8,9.3,7.8,13.7l-.7,1.2c-1.4,0-2.8,0-4.1,0-1.9.2-3.3.7-5,1.8-2.7,2.2-3.5,4.8-3.8,8.2v7.1c3,0,6.2,0,9.3,0,1.1,0,2.1.2,3.2.3,4-.7,8-1.3,11.9-2.1,2.3-4,4.7-7.8,7.2-11.5.7,0,1.3,0,2,0,5.6.4,11.1-.2,16.1-2.9l1.6-1.1c1.7-1.3,2.9-2.6,4.1-4.4,1.2-2,1.8-3.8,2.2-6,.3-2.3.3-4.5.3-6.8l-.5-.3v-4.7l1-.6c3.6-2.7,6.3-6.4,8.6-10.3,1.3-.2,2.7-.4,4-.8-1.2,2-1.6,4-2.1,6.2l3,4.7,1.5,1.3,2.1.7h1.4c-3.3,3.5-6.6,7-10.1,10.4-5.3,4.9-10.8,9.5-16.5,13.9-2.9,1.9-5.9,3.8-8.9,5.6-11.9,7.2-24,13.7-36.9,18.9l-5.1,1.9c-7.1,2.5-14.3,4.4-21.8,5.6v-98.8c1.3-.5,2.8-1,4.2-1.6,4-1.6,7.9-3.4,11.8-5.2,3.8-1.9,7.5-3.9,11.2-6.1,2.7-1.7,5.4-3.4,8-5.3-.1,1.5,0,3,.4,4.5-7.8,8-7.7,19.5-10.3,29.7M553.9,576.4h.5c0,.1,14.5.1,14.5.1v-.2h.3c4.9,6.5,13.4,31.1,11.6,38.5h-5.3c-4.8,11.9-4.4,6.2-11.1,2.5-1.2,2-3.5,8.9-6.2,8.9h0c-2.4-2.3-3.6-5-4.1-7.2-.4-.1-.6-.1-.9-.1-1.2.9-2.1,2.1-3.4,3.1-3.1-2.9-1.9-5.5-3.1-7.5-.6-.5-2.4-1.4-5.6-1.6-.2-.6-.4-.6-.4-.6,6.3-12.1,3-27.2,13.2-35.9M560.8,566.8c1.5,0,3.6,6.4,8,1.9,0,0,.3,0,1,.1-.6,1.9-1,3.8-1,5.5h-14.4c-1.3-2.2-1-4.7-.8-5.5,2.7,1.3,4.9,1.9,7.2-2M585.8,566c-1.8,0-3.3-1.5-3.3-3s1.5-2.9,3.3-2.9,2.8,1.5,2.8,2.9-1,3-2.8,3M584.7,633v-65.3l2.9.2v65h-2.9ZM588,637.3c0,9.7-7.8,12.7-16.3,12.7h0c-1.3,0-2.9-.2-4.1-.2,0-2.8,17.6-14.5,20.4-12.5M551.1,656.6c7.4-9.6,10.9-25.6,13.3-36.3,1,0,4.4,2.8,6.4,4.4,2.9-1.6,4-6.5,6.3-8.3,3.4.7,3.9.7,6.1,1.8v13.9c-2.1,1.9-5.1,1.6-6.7,1.9.1-2.4,1.9-8.1,1.6-9.8-4.8,15.6-13.6,23.5-21.7,37.7-2.9.5-5.9.9-8.7,1.5-2.3-.3-4.6-.3-7-.3,0-7.7,3.2-6.1,10.4-6.4M548.3,623.8c1,.3,2.3-.2,4.7-1.6.9,3.2,15.8,11.3,1.8,11.3-4.9-2.1-6.8-6.5-6.6-9.8M556.4,637.7c-.3,1.6-1.8,5.7-3.6,7.8h-.5c-5.7-8.1-7-11.2-7.5-19.5.2.2.6.4,1.2.9.5,3.5,1.3,6.9,10.5,10.8M616.8,564.6c-1.3,1.2-2.7,2.5-4.2,3.3.4-1.8,2.8-2.8,4.2-3.3M593.8,556.3c2.2.5,4.4,1,6.6,1.5-2,3-3.1,6-4.1,9.5-.9,3.2-1.6,6.6-3.4,9.4v-9.5c.5-1,.8-2,1-3.2,0-2.6,0-5.1-.1-7.7M639.8,585.8h-1.8c-3.6-5.6-3-17.5-10.2-12.9-3.2,14.7-20,24.7-32.4,30q0,.2.1.5c3-.9,5.8-1.4,8.7-2.4-1.7,6.4-8.8,21.7-15.1,23.9v-31.4c-.4-3.3.9-5.8,2.4-7.7,12.5-8.5,7.1-20.3,16.5-28.2,10.3-4.3,21.2-4.1,30.5-11.8,11.5-16.9-37-12.4-23.2-31,1.6-.6,2.7-1,5.2.2-7.3,16.1,17.7,7.5,23.6,24.8,0,23.9-39.8,11.5-36.7,31.1.6,1.2,1.7,2,2.4,3.3,13.8,0,17.3-26.7,33.5.9,0,3.4-1.8,6.8-3.4,10.8M603.2,612.5c0-14.1,14.4-19.1,26.3-15-2.1,10.3-7.3,22-17.7,27.3-1.2.2-.4-2.5-1.8-2.2,1.3-6.6,9.6-6.6,9.6-13.7-6.1-7.8-9,2.8-16.5,3.7M629.9,592c-2.1-.6-4.2-1-6.4-1.1,2.8-2.9,5.2-6,6.9-9.6.5,1.7,1,3.4,1.7,5,.8,1.7,1.8,3.3,2.8,4.9h5.5c-2.1,3.4-4.1,6.7-6.3,10,.6-2.4,1.1-4.9,1.6-7.3l-5.9-1.8ZM583.5,521.7l1-4.2.8-4.3.6-4.4.3-4.5v-4.6c.1,0,.1-6.8.1-6.8,25.6,0,51.2,0,76.9.1.1,10.3-.6,20.6-2,30.8l-1,6.4c-1.2,6.5-2.6,12.8-4.3,19.1-1.8,6.4-3.8,12.7-6,19-.6,1.5-1.1,3-1.7,4.5l-2-3.3c-2.7-4-5.6-8.3-10-10.8,2.4-1,4.3-2.2,6.3-3.8l1.6-1.6,1.5-1.8,1.3-2,1-2.2.7-2.4.5-2.6.2-3.6-1.1-2.9-.9-1.8c-1.1-1.8-2.2-3.1-3.6-4.6l-2.7-2.3c-1.4-.9-2.8-1.7-4.3-2.5-3.2-1.4-6.5-2.4-9.8-3.6-.8-.3-1.8-.7-2.5-1.2v-.8c.1,0,2.9-6.9,2.9-6.9l-5.4-2.4c-2.6-1-4.9-1.3-7.6-.5-.9.3-1.8.7-2.7,1l-2.2,3.4-1.1,2.2-.7,2.3-.3,2.4.2,2.4.7,2.2,1.1,1.9,1.3,1.6,1.5,1.3c1.6,1.2,3.2,2.1,4.9,3,4.7,2.1,9.7,3.6,14.4,5.8,1.1.5,2.4,1.2,3.1,2.1,0,.4-.3.7-.5,1.1-.9.7-2,1.4-3,2-6.5,3.6-14.1,4.6-21.1,6.9-1.7.6-3.4,1.2-5.1,1.9-1.3,1.2-2.7,2.4-3.8,3.8v-17.8l-7,.4.9-7.8h-15.1l.8-1.9,1.4-4,1.2-4.1ZM615.8,326.1c0,2.5,0,10,1.2,12.2,9.8,0,18.3-6.4,7.7-13v-1c1.1-.6,2-.7,3.2-.7,1.6,1.4,4,5.2,5.2,4.6-.6-1-1.3-2-1.8-3.2,5.4-3,8.8,10.2,7.6,13.9,6.6-1.4,12.5-.9,14.2,8-.4,0-.6.4-.9.4-.9-.5-1.6-1.2-2.7-2.1v1.1c1,.7,4.3,2.5,4.3,6.4-.6.1-1.1.7-1.6,1-1.6-2.1-4-4.2-5.5-6-4.4.6-10.3,7.8-8.3,12.7,9.6.7,19.8,2.1,22.8,15.1,0,21.1-7.1,41.8-3.6,63.6-.6,0-.7,0-1.2.1-14.5-6.7-11-22.3-10.1-35,.7-3.5,0-17.4-2.4-18.9-15.5-4.6-14.2-14.5-23.1-19.1-3.3,5.2-10.9,4.7-15.5,3.2,0-7.4-1.4-10.8,4.8-14.4,0-1.9-11.6-9.9-11.6-9.9-4.1-5.5-5.6-8.9-6.2-13.6-2.8-1.5-14.2-4.6-19.4-4.7-10.6-.6-26.3-1.5-30.7-3.7-2.7-4-3.1-5.5-3.8-8.7,14.9,0,29.7,2.4,47.5-.6,12,0,23.4-2.2,29.8,12.3M656.6,359.5l-2-1.1,1.2-.9,3.5-1.1c-.2-2.9,0-5.6-1.1-8.3l.3-1.4c-.4-1.7-.7-3.2-1.3-4.8-.9-2.2-1.9-3.8-3.6-5.5-2.8-2.5-5.9-3.5-9.6-3.6-.7-4.1-2.2-7.9-5-11-.9-.8-1.6-1.4-2.7-2l-2.5-.7h-1.3s-1.3.1-1.3.1l-1.2-1.1c-1.8,0-3.4,0-5.2.3-2,.5-3.7,1.6-5.5,2.5h0c-1.9-3.5-4.6-6.4-8-8.7l-2.3-1.3-.4-.2h54.9v56c-1.8-3-3.9-5.2-6.9-7.3M662.6,436.2c-.4-3.8-.6-7.5-.6-11.3.1-6.2.8-12.4,1.6-18.6v36.5l-1-6.6ZM644.7,434.4q-.4,0-.7.3c-9.1-7.4-8-18.4-7.8-27.5,7.4,5.9,4.9,16.6,8.6,27.3M642.9,408.7c-7.6-6-8.1-17.2-7.4-24.7,1.9,0,5,1.2,7.7,2.5.1,7.2.7,14.8,1.3,21.9-.6,0-1.3.1-1.6.3M633,404h-.7c-5-6.7-3.8-18.6-3.5-26.4,5.5,0,3.9,19.4,4.2,26.4M626.4,397.3c-.3.3-.5.5-1,.7-7.5-8.8-4-18.2-3-27.4,6.1,1.5,3.8,18.6,4,26.7M619.3,401.5c2.5,4,4.8,7,.5,10-2.8-6.1-3.3-11.2-9.5-13,0-10.5-5.4-27.9,9-27.3-.7,10.9-3.3,18,0,30.2M586.4,390.9c1.6.7,3.1.9,4.9,1.2l1.5-.4c.4,4,3.4,7.5,5.5,10.6l6.7-4v4.3c1.6.5,3.4.9,4.9,1.6,1.7,1,2.5,3.3,3.1,5,1.5,3.6,3.1,7.1,4.7,10.6l5.9-4.3c2.8-2.3,4.4-5.2,4-8.9l2,2.8h1.2c-.1,4.4-.1,8.7.6,13,.7,3.9,1.9,7.3,4.1,10.6.7,1,1.5,2,2.4,3,1.8,1.9,3.8,3.5,5.9,5.3l2.4-1.6h1.8c2.4,2.2,5.1,3.5,8,5l1.8-.4h6v17.3h-77.1v-70.7ZM598.2,366.8c0,.3,0,.4.1.8-5.4,5-7.8,6.1-13.9,7.4-3.1-.8-3.6-1.9-4.1-2.4,5.5-.4,13.1-6.5,17.9-5.8M590.8,386.6c-1.2-.1-2.1-.5-2.7-.8,0-10.8,6.5-12.3,15.9-16,4.2,4.7-7.8,15.4-13.3,16.8M607,376.9c0,5.4-4.9,11.5-6.6,17.8-.4,0-.6,0-.6.4-5.4-7.4,2.7-13.8,7.1-18.2M582.1,357c7.5-.3,15.3-.4,22.9-.4,0,5.8-2.9,7.6-8.1,8.2-7.4-.6-14.9-2.7-20.5-1.2-5.3-5.5-4.9-7.6-11.8-10.3,0-.7-.1-1.2-.1-1.6,2.1-2.2,12.3,3.8,17.6,5.4M605.8,353.2c-.4,0-.4.2-.4.3-5.7.6-10.9.7-16.1,1.3-5.4-1.3-9.9-3.9-11.1-7,9.9,2.2,18.7-1.9,27.6,5.4M598.5,347.1c-3.4,0-7.1,0-10.3.4-8.4-1.4-12.2-2.6-16.2-8.3.1-.5,25.8.8,26.5,7.8M570.2,337.5v.5h-3.7c-9.1-.8-19.1-2.2-23.6-9.7,11.8,1.8,18.2,2.2,27.3,9.3M568.1,329.6c6.6,0,15.1,1.2,23,2.3.3,1.5,1.9,4.3,1.9,7.4h-1.6c-3.2-.5-26.3-3.8-23.2-9.7M539,331.9c.6.9,1.3,1.7,2.1,2.5,1.5,1.5,3.1,2.7,4.9,3.8,4.1,2.2,8.3,3.4,12.9,4.1,3.1.5,6.3.9,9.5.9.9,1.3,2,2.5,3.2,3.5-1.8-.6-3.5-1-5.4-1.1-1.2,0-2,.2-3.1.5l-1.2.6-2.7,2.2c0,1.2,0,2.4.1,3.6.1,1.4.1,2.8.1,4.2,2,.8,4,1.5,5.9,2.5,2.1,1.2,3.5,3.4,5,5.3,1,1.1,2,2.2,3,3.3l-4.3.5,7.5,7.9c1.9,2.2,4.1,3.1,6.8,3.9-.4,2-.6,4-.6,6h-69.8v-75.5h19.1c.6,2.2,1.1,4.4,1.7,6.6.4,1.5.9,2.8,1.6,4.2l-3.3-.5,7,10.8ZM576.1,539.4l1.1-1.9v2c.1,0-1.1,0-1.1,0ZM583.1,545.2l-.6-8.3h6.5l-.9,8.3,7.7-.5v6.5c-2.3-.5-5-.9-7.4-1.4v8.8c.1,0-5.8,0-5.8,0l.6-8.8-8.1.9v-5.9l8.1.5ZM577.4,555.8l-.5,8.1h.4c.3,1.8.9,3,2.1,4.5v16c-1.5-3.5-3-7.1-5.1-10.3,0-1,.2-2.1.5-3.1l2-6.6-6.7-1c-1.2-.1-2.2,0-3.4,0l-.7.7c-1.1-1.2-2.1-1.9-3.7-2.5l-3.6-.5,4.3-4.1,5.4-6.1,1.3-1.7v7.4l7.8-.8ZM514.6,707.3v59.2c-3.8-.2-9.3,0-13,0-.2-19.4-.2-38.9-.2-58,4.5-.2,8.6-.8,13.3-1.3M504.6,701.9h-3.6s0-110.2,0-110.2l3.9-1.2c.9-.3,1.7-.6,2.5-.9v102.9c27.8-2.1,57.6-18.2,81.2-33.6,24.9-18.7,41-39.3,57-65.9,16-34.9,24.2-68.7,22.9-105.4-26.9-.1-53.9-.1-80.9-.1-.5-2.1-.5-4.4-.5-6.5h89.5c.6,49.8-5.8,100.1-38.2,140.3-31.8,39.4-83,80.1-133.8,80.5M589.9,774.1c-1.1-.1-1.6-.5-2.2-.5v-1.5c1.6-1.8,7.8-4.6,11-1.3-2.7,2.7-6,3.2-8.7,3.3M577.2,790.9c1.3-1.6,2.5-3.4,3.7-5.1,1.6-2.2,3.1-4.4,4.9-6.4,2.1,0,4.2.1,6.3,0-1.8,2.2-2.9,5-4,7.7-.6.5-1.3.9-1.9,1.3l-3.3,2.3-.6.7-.5.8-.4.9-.3,1v1.6c-1.2-1.8-2.6-3.3-4-4.7M573,689.5c-2,5.9-5,11.5-7.2,17.4h0c-1,0-2.1.1-3.2.1-.3,1-.7,2.1-1,3.2-.3,1.3-.5,2.7-.9,3.9l-2.6-1.2c-.7,1.5-1.4,3-1.9,4.6-.4,1.4-.7,2.8-.8,4.2l-2.4-.4-1.6,3.2c-.4,1.1-.8,2.3-1.2,3.4-.2.6-.4,1.2-.9,1.6-.6.3-1.5.4-2.2.5l-1.2,2.7c-.4,1.2-.7,2.3-.9,3.5l-1,7.4c-.3,1.8-.7,3.7-2,5.1-.6.5-1.2.7-2,1l-2.4.2-1.6,1.7c-.5.7-1,1.4-1.5,2.1-2.8,0-5.6,0-8.3.8-.5.2-1,.4-1.5.7-1,.6-1.8,1.3-2.6,2.1-1-16.2-.2-32.4-.1-48.6,5.5-1.5,11-3.3,16.4-5.1,3.5-1.2,6.9-2.5,10.3-3.8,3.3-1.4,6.6-2.8,9.9-4.3l6.4-3.1c2.9-1.5,5.8-3,8.7-4.6l-.6,1.7ZM572.6,716.8c-3.1-5.7-3.4-6.6-1.7-11.6,4,0,6,10,1.7,11.6M576.6,706.8h-1.3c-.1-.1-.3-.1-.3-.1-1.3-5.7,1-9.9,3.1-14.1,1.2-.7,3.3-1.9,6.2-1.1-.7,4.9-5,11-7.7,15.3M592.3,691.1c2.5,6.1.2,10.6-7.4,11.4-1.5-4.3,3-13.3,7.4-11.4M592.2,705.8c2.3,4.3-7.9,8.5-11.2,8.6,1.9-6.2,4.6-9,11.2-8.6M578.3,754.3c0,2.4-16.3,21.1-19.2,22.1-.9-.6-1.5-1.1-2.1-1.5,0-4.9,15.9-20.5,21.3-20.5M572.1,747.6c0,.8,0,1.4.6,2.5-3.4,5.2-15.7,18.6-20.2,20.4-6.4-4,15.4-18.1,19.7-22.9M577.5,749.6c-2.7-4-2.6-12.2,3-12.2,2.1,2.8.9,10.9-3,12.2M589.3,721.9c.6-.2,1-.2,1.7-.2.9,2.7,1.6,8.5-.4,12.6h-.9c-3.8,0-1.1-11.2-.4-12.4M579.9,721.1c-3-1.2-3.3-1.4-3.3-2.7,3.7-1.6,7.1-3.3,12,0-1.5,2.7-7,2.7-8.6,2.7M564,745c-.5-.7-.6-1.8-.6-2.1,3.7-2,7.5-3.1,6.6-7.1,3.8-1.6,6.6-2.8,6.6-7.1,1.5-.5,2.7-1.1,4.5-1.2,0,2-.9,4-1.8,6.4-1.2,0-2,.3-2.8.5-4,5.6-24.2,28.3-29.1,31-.5-1.1-1.1-2.1-1.3-3.2,5.9-5.8,11.7-11.6,17.9-17.1M553,751.1c-1.8,2.6-5.6,7.7-8.6,7.7-3.1-4.9,4.3-11.1,8.6-7.7M565.3,714c1.3.8,5.6,11.8.7,11.8s-1.5-11-.7-11.8M570,732.2c-2.6,2.7-6.4,2.7-8.5,2.8-.8-.1-1.3-.5-1.6-.6-.1-.4-.1-.8-.1-1.6,2.9-1.5,6.4-3.8,10.3-.6M553.8,730.3h1.2c1.2,1.7,2.9,12.1-2,10.8-1.6-5.5-.2-7.4.9-10.8M561,744.5c0,.6,0,1.1.1,1.5-2.2,2.2-5.6,2.4-7.7,2.9-.8-.2-1.3-.7-1.8-.7-.1-.6-.1-1.1-.1-1.6,2.7-2.7,5-3.3,9.4-2.2M572.5,782.1c-.8-.1-1.4-.6-2.2-.6-.2-.7-.2-1.2-.2-1.3,3.5-3.7,6.6-9.4,11.6-11.5,3.2,4.9-6.5,13.4-9.1,13.4M566.7,780.8h-1.4c-.6-.4-1.3-.6-1.9-.6-.1-.4-.1-.9-.1-1,7.7-9.3,16.1-18.2,24.4-26.7.5,0,.9,0,1.2.3-.1,1.6-.6,3.9-.7,5.6h-3.8c-6,7.1-11.7,15.3-17.6,22.5M595.7,762.8c-.6,0-1.2.4-1.7.5-3.7-3.8-2.7-10.1,1.7-10.8,1.3,2.4,1.8,6.3,0,10.3M589.7,744c-1-.2-1.9-.6-2.6-.7,0-3.7,7.8-4.8,11.1-3.7,0,.3,0,.4.3,1-2.6,2.6-6.6,3.4-8.9,3.4M532,771.7c6.1.9,13.8,3.5,18.5,10.5-.7,0-1.1,0-1.2.1-2.9-.8-19.6-6.5-17.3-10.7M558,796.6c-.5,1.6-1.1,1.3-2,1.8-4.2-1.6-8.5-11.1-9.3-13.6,6.5-.9,6.7,4.8,11.3,11.8M527.8,764.8c-.8.6-1.3,1.5-1.9,2.1h-3.3c0-7.1,6.4-7.6,12-7.6,4.9,2.2,46.8,32.8,42.5,45.9-.4.5-1.1.6-1.3.8-3.1-2.9-2.4-3.5-2.8-6-10-9.9-36.6-40.6-45.1-35.3M563.6,805.1q-.6,0-.7.3c-5.4-3.7-3.9-9.6,1.6-10.9,1.1,1.2,2.8,2.2,4,3.3v.9h-3.7c-1.9,3-1.9,1.8-1.3,6.4M624.4,679.9c-2.7.4-5.5,1-8.2,1.5-2.5.4-4.9.9-7.4,1.2l-1.4,1.1c-.6.7-1.1,1.3-1.6,2.1-1.7,3.1-2.5,6.6-3.4,10-.5,2-1,4-1.6,5.9h-.9c-.2-3.9-.5-7.8-.6-11.8,0-1.8,0-3.5,0-5.3-1.5,0-3.1,0-4.6,0-6.3.1-12.6.8-18.9,1.8,3.6-2.1,7-4.3,10.5-6.5l5.8-4.1,5.8-4.3,5.6-4.6,5.6-4.9c2.5-2.2,4.9-4.5,7.3-6.9l.3,2.1.8,3.5,1.1,3.3,1.3,3.1,1.6,3,1.8,2.8,1.9,2.8,3,3.6c-1.2,0-2.5.2-3.8.3M616.5,713.1c.5-7.7,7.7-19.3,14.5-21.6.7,2.3.9,4.4.9,7.8-3.5,3.7-10.9,12.7-15.4,13.7M612.5,757c-.9,2.4-6.3,2.8-8.2,2.8q-1.8-.5-2.8-1.2c2-2.7,7.6-4.4,11-1.6M606.8,749.4h-1.9c-3.1-3.9-2.4-7.8-.7-10.4h2c1.4,2.5,2,6.5.6,10.4M615.8,687.4c1.9-1.2,3-.6,6.1-.4-1.8,3.8-11.5,19.3-15.1,18.6-1.5-4.9,7.1-14.6,9-18.3M614.8,732.2c-.2-.3-.4-.5-.6-.5.6-6.6,2.3-11.7,8.8-11.7,1.2,1.9-5.6,11.4-8.2,12.2M625.1,735c1.3-6,3.8-12.1,9-13.9,2.2,6.6-2.3,10.9-9,13.9M626.8,741.9v1.3c-5,1.8-7.2,1.8-10.6,1.8-1.9-1.9-.9-1.3-.9-1.8,1.8-1.8,8.1-3.7,11.6-1.3M601.9,707.3c1.1,1.9,3.9,9.4,1.1,12.9h-1.1c-4.4-2.7-3.4-12.9,0-12.9M610.2,727c-2.5,1.9-5.5,2.1-7.4,2.1-.8-.2-1.4-.4-2-.8-.5-.6-.5-.7-.5-1,1.5-.6,9.8-5.1,9.8-.3M636.7,697.2c-.3-3.3-.6-6.5-1.2-9.7,2,2,4,4,6,6,2.4,2.4,4.8,4.9,7.1,7.4l2.2,2.5,2.1,2.6,2,2.7,1.8,2.8,1.6,2.9,1.5,3.1,1.3,3.2,1,3.4.8,3.5.5,3.8.3,4v4.3c-.1,0-.5,4.5-.5,4.5l-.8,4.7-.7,2.4-.8,2.4-.9,2.3-.9,2.1-1,2-1.1,1.9-1.2,1.8-1.3,1.7-1.3,1.6-1.4,1.5-1.5,1.3-1.5,1.2-1.6,1.2-1.6,1-1.7.9-1.8.9-1.8.7-1.9.6-1.9.6-1.9.5-2,.4-2.1.3-4.2.2h-4.4c0-.1-4.5-.6-4.5-.6l-4.6-.8-5-1.3c-1.7,0-3.4,0-5.1,0,1.1-1,1.9-2.1,2.8-3.3l-.4-.7c1.6-.8,3.2-1.6,4.7-2.7l1.2-1,.6-.6,1.4-2.1-.9-.9c.6-.3,1.3-.6,1.9-.8.9-.4,1.8-.9,2.6-1.5l.6-.6.6-.7.9-2-.8-1c1.6-.8,3.3-1.3,5-1.9l.8-.3,1.8-1v-1.2l.7-1-1.4-1.8c1.6-.8,3.1-1.7,4.8-2.4,1.1-.4,2.2-.7,3.3-1v-3.1c1.8-1.7,3.5-3.4,5.6-4.9.9-.7,1.9-1.3,2.8-1.9-.2-2.3-.4-4.6-.6-6.8-.2-2.4-.4-4.8-.6-7.2-.3-2.5-.6-5-1.8-7.3l-.9-1.6c-2.6,0-5.2,0-7.7.1,2.1-1.6,4.4-3,6.6-4.5l1.7-1.3c-.6-3.8-1.1-7.5-1.5-11.3M566.7,238c-2.7,9.9-6.7,21.1-2,32.2,5.6-11.1,5.7-29.4,19.1-33.8-1,8.3-1,14.8-.1,24.1-3.7,4.3-12.5,13.9-8.5,21.7,7.6-13.9,23.7,8,3.5,9.7-31.7-4.8-33.6-40.7-22-63.5,0-.5.8-.8,1.2-1.4,2.1,4.7,2.6,7,8.9,11.1M655.5,134.9c-15.4,5.4-26.5,5.4-36.3,17.3,5.7,0,18.2-5.5,24.7.5-1.8,3.2-3.2,6.8-4.8,10.2-8.1.6-28.3-.3-28.3,12.6,10.4-8.3,19.8,10.2-.6,11.7-19.3-4.6-8.8-32.1-1.1-41.7,16.6-14.7,25.3-21.8,46.4-10.9v.5ZM680.3,157.5c-13.6,3.4-19.1,5.3-27.8,26.3-1,6.3-2.4,12.1-3.3,18.1q-.5.5-.7-.1c-6.2-18.2-.1-43.2,18.9-49.2,1.2-.4,5.9-2,9.8-2.1,3.1,0,6,.9,6,3.8-.2,1.6-1.5,3.1-2.9,3.3M687.7,163.4c-21.5,8.9-26.6,19.1-29.8,41.8-.2,4.7-.5,8.9-.6,13.9-8.9-21.8-2-48.3,11.4-55.5,3-2.1,20.2-9.9,19.1-.1M691.9,174.9c-23.5,15.5-31.2,36.6-17.5,64.3-.1,0-.7.1-1.1.1-21.9-20.7-14.4-51.2.3-66,6.6-5.7,22.7-11.8,18.2,1.6M695.1,186.7c-19.2,15.6-20.1,38.1-6.6,59.3-.2,0-.7,0-.9.1-26.9-13.6-20.5-59.4,4.5-67.8,3.3,0,5.2,4.1,3.1,8.4M700.3,197.9c-2.7,4.9-6,10.5-6.9,13.4-2.5,12.9-3.7,19,3.4,32.3,2.1,2.7,4.1,5.5,3.3,5.5-22-14.1-25.2-43-5.8-58.9.9-1,2.1-1,3.2-1,5.5.6,4.9,5,2.7,8.8M699.9,202.4c14.5-10.3,4.9,12.7,3.7,18.5-.3,16.1,5.9,18.5,13,30.6h-1c-22.2-7.1-28.9-32.3-15.7-49.1M621.1,241.8c-33.5-12-4.4-64.4,14.1-60.1,1.4,3.1,1.4,7.7,2.1,12.4-10.9,4.4-12.4,4.5-17.7,15.4h1.5c8.6-7.1,13-6.7,24.2-3.8.4,1.9,2.2,7.9,1.2,11.1-7.6,0-24.8-1.8-24.8,10.2,11.8-7,16.7,14.8-.6,14.8M615.3,280.3c14.1-11.5,19.9,11.5,5,11.5-52.4-4.8-31-76.1-18.5-71.8,0,7,5.9,15,1.6,21.2-3.2,9.6-5.3,18-.6,29.3h.3c3.4-9.6,9.3-21.2,19.7-25.6,2.1-.2,4.7-.2,7.8-1,0,3.5-1.2,9.8-1.6,14.7-10.5,6.5-14.4,8.1-13.7,21.7M654.5,280.3c6.8-13.3,27.9,10.4-1.8,12.1-33.7-4.3-20.8-61.2-2.7-74.2.9.9,6.2,6.2,6.2,9.8-7.7,11.2-15.4,26.9-11,42.1.2,0,.6.2.6.3,2.6-2.6,21.7-44.3,28.5-23.8-6.8,5.2-22.3,23.6-19.8,33.6M699.5,473.2c7.5,1.8,14,5,23.4-.7h1.2c-1.9,3.1-2.8,9-5.2,11.7-14.8,10.1-24.7,18.5-36.8,31.5-.5,0-1.2.6-1.9.7,0-20.7-1.7-33.1,19.3-43.2M686.5,434.7q-5.6,5.2-6.3,5c0-22.3,1.5-18.7,8.7-35.1q1.1-4.4,2-14.3c1.6,0,6.5,0,9.2,1.4-.5,15.8-3.7,29.5-13.7,43M705.7,390.1c1.2-.9,9.2-5,11.7-5,3.8,9,7.6,17.4,8.8,28.1,8-7.5,9.2-20,9.2-29.7,2.6,0,4.6,1.2,9,1.6.1.4.5.9.7,1.1-4.5,19.6-10.4,53.5-37.6,53.5-28.4-6.2,6.6-38.7,6.6-10.4,6.7-6.9-7.2-32.2-8.4-39.2M752.8,465.1c-10.6-.9-14.4-3-23.2,2.5-.6-.1-1.2-.5-1.5-.5,14.9-24.8,25.3-49.8,32.9-76.9,4-6.4,7.9-9.9,15.7-9.9,28.8,11.1-14.5,72.3-24,84.8M782.4,381c-11.7-6.1-14.7-1.9-22.7,5.9-9.6,19.5-24.5,86.8-49.9,86.4-11-1.9-20.9-9.6-13.2-19.9,2.6,1.3,4.6,6.7,10.5,6.7q.6-.2,1.3-5.8c6.3-10.4,16.1-4.3,23.9-9.8,11.1-19.6,10.5-43.6,21.1-63.1,15.6-12.2,19.9-17.1,21.1-37.1,12.5,2.4,22,7.7,33.7,16.3-7.8,6.3-11.4,21.9-17.5,31-1.3,0-6.6-9.6-8.2-10.7M750.8,322.2v-1.3c2.6-1.9,4.9-3.9,7.5-5.7,3.2,1.7,9.8,17.1,12.4,23.2,3.7,18.7-7.4,42.1-29.4,42.1-27.7-10.5-2.2-36.2,2.2-15-.1.6-.7,1.2-.3,2.2,11.9-23.9-23.1-51.6-21.8-53.7,24.1,13.4,33.1,15.5,35.3,46.6,10.2-10.2,2.6-31.1-5.8-38.5M715.1,317.7c4.9,4.5,9.4,9.7,14.6,14.4,5,19.5-8.9,53.4-32.8,53.4-38-7.6-1.2-42.8-1.2-17.7-4.7,5,6,8.1,10-1.8,0-23.6-25.4-31.6-25.9-55.4,11.2,0,30.3,35.5,35.3,46.1,12.4-11.7-1.9-32.8,0-39M702.2,295.7c12.2-8,22.2,18.3-5.7,18.3-17.3-4.1-16.7-7.9-17.3-19.9-1.4-.2-2.6-.5-3.8-.5-7.9-16.4-3-30,2.7-45.1,1.8,0,6.1.4,8.7,2.8-3.9,14.7-5.3,32.8,7.1,45.6.3-3.9.3-7.7.4-11.8,3.3-9.9,6.5-20.8,7.2-30.7q3.7,0,7.9.4c5.6,11.5-8.6,27.7-7.3,40.8M689.7,131h-1.2c-8.7-7.1-12.4-3.9-13.3,6-.3.2-.4.4-.5.4-24.7-12.2,21-32,14.9-6.5M670,142c2.5.3,7.2,0,9.1,4-.5,2.4-1.4,3.3-5.8,3.1-18.7,5.9-18.9,8.6-27.2,25,0,.8-2.8,17.1-4.4,16-7.2-22.2,5.1-45.3,28.3-48M579.7,204.4c8.5-3.4,15.1-7.5,25.4-4.1q-.4,3.3-2.6,9.7c-7.3,5.1-27.2-2-28.8,14.2,11.6-7,16.8,12.8-.4,11.6-29.6-8.1,2-58.8,21.6-58.8.5,2.7,1.1,5.6,1.8,8.1-.7,1-18.9,17.4-17,19.4M676.6,298.1v176.9s-89.7,0-89.7,0v-7.9h82v-161.6h-161.4v80.8h-6.5v-88.2h175.6ZM525.9,271c7.5-7.2,7.5-29.2,21.5-32.6-1.1,7.1-1.8,14.1-1.8,22.1-5.2,5.2-12.7,13.7-9.4,22.1,8.2-14.6,24,9.9,2.6,9.9-36.2-5.5-33.4-43.9-20.4-68.7,1.5-1.5,9.3,12.4,9.3,16.3-3.3,10.1-6.2,19.8-2,30.9M414.3,497.6v-106h166.7v107.9c0,47.4-38.7,74.2-81.8,87.1-42.6-12.3-84.9-50.5-84.9-89M483.1,634.1c-.9-.8-1.9-1.6-2.9-2.3,1.2-1.8,2.1-3.5,3-5.5l1.2-4,.5-4.1v-2.1c-.1,0-.5-2.1-.5-2.1l-.7-2.1-1-1.9-1.3-1.8-1.6-1.6-1.9-1.3-2.1-1.1-2.3-.8-2.5-.6-5.8-.8c-1,1.6-2.2,3.2-2.9,5-.5,1.8-.7,3.7-1,5.5l3.3,2.4c1.3,1.2.5,3.7,0,5.2-.3.7-.6,1.4-.9,2.1l-.3-.5-1.2-1.7-1.4-1.5c-1.5-1.5-3.1-2.7-4.8-4-8.5-5.4-18.2-8.7-27.9-11.2v-.6c-.1,0-2.6-.7-2.6-.7,2.7-1.3,4.6-3.3,6.8-5.3,2.4-1,4.8-1.9,7-3.4,3.8-2.7,5.8-6.3,6.4-10.9.3-2.3.2-4.6.2-6.9.8-1,1.2-1.7,1.6-2.9.6-2.4.5-5-.1-7.5l6.5,5c3.7,2.6,7.4,5,11.3,7.4,3.9,2.2,7.8,4.3,11.9,6.4,2.8,1.2,5.5,2.4,8.3,3.5v49.3c-.7-1-1.5-1.8-2.3-2.7M369,600.3v4.1s7.8-1.9,7.8-1.9c1.3-.6,2.4-1.2,3.5-2.2l1.8,1.6,5.6,3.1c-.3.4-.5.7-.7,1.2-.9,1.6-.9,3-.9,4.8-1.6,2.4-3.3,4.6-4.2,7.5-.5,2.4-.4,4.7-.5,7.1l6.2,1.6c9.8,2.4,19.5,5,29.2,7.5-.2,2.4,0,4.8.4,7.2-1.2.9-2.4,1.9-3.5,2.8v10l6.5-.7c.5,0,1,0,1.5,0,1.5.4,2.2,2.6,2.7,3.8,1.2,3.1,2.3,6.4,3.4,9.5l6.4-3.6.7-.6,1.3,2.9h3.3l6.7,2.1v-8.3c-.2-3.1-.7-6.2-1.2-9.3-.3-2-.7-4-.7-6l10.4,7.7c2.5,1.7,5.6,2.5,8.5,3.3,1.8.4,3.6.7,5.5,1h1.6c2.7-.4,5.1-1,7.6-2.1,2.8-1.3,5-2.8,7.1-5.2l.5-.9v38.4c-3-.1-6-.6-8.9-1-6.5-1.1-12.6-2.7-18.9-4.7-3.1-1-6.2-2.1-9.2-3.3-4.4-1.8-8.8-3.7-13.1-5.8-4.7-2.4-9.3-4.9-13.9-7.5-4.9-3-9.7-6.1-14.4-9.4-4.9-3.6-9.6-7.2-14.2-11.1l-6.2-5.9-6.1-6.8-6-7.5-5.7-8.3c-2.8-4.5-5.5-9-8-13.6l-.9-1.8h9.3ZM340.7,540.9v-1c4.8-2.4,13,6.9,22.9,7.9.7,2.1,2.5,4.3,2.5,8.4-1.4,0-2.3.6-3.4.8-4-1-8.3-3.7-10.3-4.2-2,1.6-3.3,2.5-5.2,1.9,2.9-7.5-1-11.2-6.5-13.8M340.9,547.1l1.6,4.6-.9,2.7-1.6-5.8-.5-2.3,1.5.7ZM360.6,534.9v5.9h-3.8c-8.1-2.5-12.5-8.9-16.9-13.9,4.7,0,13,6.3,20.7,8M379.5,505.4c-12.3-5.7-13.1,2.6-19,12.4-.6-2.5-.3-7.6,1.7-11.7,4.4-8.3,15.5-14,17.3-.7M427.5,558.1c-1.7-4.8-1.9-7-1-7.2,2.5-.8,8,2.6,9,5.9-2.7,1.5-5,1.3-7.9,1.3M432.6,560.1c-.7,4.7-2.6,8.5-7.7,8.9-7.7-2.1.8-10,7.7-8.9M429.5,589.5h-1.2c-19.2-5.4,1.2-20.8,1.2,0M415.1,597.5c1.3-2.3,3.1-4.7,4.3-6.4,2.7.8,5.8,1.8,7.4,3.4-3.2,3-7,4.8-11.7,3M424,612.9c-7.2-1.9-11.9-6.2-14.9-10.5,3.5,0,9.5,3.2,14.5,4.6.4,2.3,1.1,4,1.5,6h-1ZM427.8,621.6h-1.1c-3.6-1.6-10.2-5.2-11.2-8,3.1,0,12.4,1.8,12.4,8M433.6,637.6c1.3,0,3.4,0,5.9,1.6-2.2,7.3,1.1,13.4,1.1,21.7-.3-.1-.5-.1-1-.1-3.4-7.6-9.6-16-6-23.2M419.1,647.3c1.3-1,2.7-1.9,4-2.5-.7-5-2.3-12.1,1.4-14.3,7.6,6.1,6.2,2.9,5,13.1.5,3,6,13.8,1.2,16.1-2.4-6.9-4.1-11.7-11.6-10.8v-1.5ZM392.4,607.7c9.1,3.4,17.2,3.4,25.6,12.3-.3,0-.8,0-1,.5-8.5-3.1-17.1-6.3-25.6-9.4,0-2.2,0-1.7,1-3.3M393,590.8h.2c.4,1.7.9,3.4,2,4.8l-3.5-.3c0-1.9.1-3.9.1-5.9l1.2,1.3ZM398.7,578c0,1-2.5,6.8-3.8,6.8-2.4-2.7-3.6-7.8-1.9-11.2,1.7,1.5,3.7,2.9,5.7,4.5M394.1,565c0-5.6,1.5-8,6-10.3.4,1.3,1.6,4.6,1.6,7.7q-5,2.2-7.6,2.7M403.1,574.5c-4.1-1.3-6.5-2.8-7.4-5.4,12.2-6.5,16.2,5.4,7.4,5.4M409.5,567.1c-5.4-1.5-5.4-7-5.4-10.1,6.6-1,12.8,9,5.4,10.1M412.6,555.3c-2.3,0-4.4-1.9-6.8-3.1,3.5-4.5,9-4.3,11.1-3.2,0,1.2-3.1,4.7-4.4,6.3M416.7,564.8c-4.8-2.3-1.7-10.2,2.5-12.1,1.7,3.2,5.4,12.1-2.5,12.1M416.7,577.6c-2.3,0-4.4-1.4-4.4-3.9s2.2-4,4.4-4,4.3,1.6,4.3,4-2.4,3.9-4.3,3.9M413.8,593.2h-1.2c-9.5-18.2,13.1-14.9,1.2,0M399.9,584.9c-.9-5.2,8.1-11.5,10.2-7.7,2,5.6-5.3,8.6-10.2,7.7M398.5,589.5q.9-.5,7.9-1.1c.6,2.2,1.2,5,2.2,7.1-2.7,1.5-9.7-.9-10.1-6M412,611q-.4.3-1.4.3c-8.4-2.5-16.1-4-17.6-10.5,3.8,0,16.1,4.8,18.9,10.2M389.3,615.9c3.1,0,28.7,6.5,30.9,13.5-.2,0-.7.2-.9.5-10.7-2.9-21.6-5.8-32.4-8.4,0-2.4,1.1-3.7,2.4-5.6M382.8,561.7c1,0,2.5.8,4.9,2.6,0,5.4.4,10.6.5,15.6-.5,0-.5.3-.6.3-4.4-6.4-5.4-12.9-4.8-18.6M382.5,576.6c5.3,5.3,3.7,12.4,3.8,21-.2,0-.7,0-.7.1-6-2.9-3.5-17.6-3.1-21.1M374.8,506.4c1.6.1,3.5,1.1,4.9,2.2-2.8,1.6-8.2,4-10.6,6.4-1.8-4.6,0-9.7,5.7-8.7M400.9,524.2c-.9,0-1.5.5-2.5.6-2.2-14.6-28.1-2.3-34,2.5,0-14.3,39.1-30.1,36.5-3.1M369.1,595h-6.3q-.4-2.3,2.8-34.4c6.1,2.3,3.5,26.7,3.5,34.4M375,537.5c-.4-.1-.9-.5-.9-.5-.5,7.9-.5,15.6-.7,23.6,0,0-.3.1-.4.2-10.9-7.2-13-44.6,9.1-37.4,8.3,4.3,6,28.9,5.6,38.2h-1.1c-5-7.1-5-21.6-6.3-22v16.2h-.3c-6.5-4-4.9-13.4-4.9-18.4M374.3,597.6c0-8-1.7-22.7,0-28.6,2.8,4.6,7.9,27.4,0,28.6M375.3,555.9c5.3,0,4.2,8.9,4.2,13.9q-.3,0-.5.4c-3-6.8-3.2-9.4-3.8-14.2M453.6,638.3c-2.2.1-4.3.6-6.3.8-8.3-3.2-23.7-8.8-25-16.6,6.5,0,15,7.1,22.2,7.1v-1c-6.5-2.3-13.9-5.6-15.5-10.8,4.1,0,9.1,3.4,15.5,4.8v-1c-10.1-6.3-14.7-3.6-18.5-13.3,9,2.2,50.1,13.8,27.6,30.1M463.5,642.3c2.5-2.1,7.4-5.4,9.3-8.1,2.5,4.3,1.7,9.5-4.1,9.5-1.6.1-3.7-.4-5.2-1.4M476.7,635.9c11.4,7.3,1.5,14.9-7.9,15.4-4.3-.7-9.3-1.8-11.4-3.4,11.4-1.2,19.3,1.6,19.3-12M467.2,610.2c.1-.7.1-1.4.7-2.2,24.2,2.2,6.2,34.2-14.7,34.2-.2-.4-.2-.6-.2-.6,9.1-3.9,24.8-24.8,14.2-31.3M440.6,579.7c0,4.6-1.7,8.4-6.1,10.2-.3-2.3-1-4.9-1-7.5,2.1-1,4.8-1.6,7.1-2.7M438.1,561.9c3.5-1.8,6.4,10.2,3.2,10.3-3.2-2.1-5-2.4-5.5-3.5-.6-1.3.5-2.8,2.3-6.8M436.5,574.6c-3.4,2.7-6.5,3.5-9.1,3.5-5.5-1.3-4.4-5.9-.8-6.8,4-.9,9.3,2.2,9.9,3.3M435,376.1l1.1-2.2c4.3-.3,8.4-1,12.6-2.2,2.4-.7,4.6-1.6,6.9-2.6l4.5-2.5,4.4-3.1,5.2-4.5-2.3-4.6c-.7-1.1-1.4-1.9-2.3-2.9l-2.2-1.4c-1.3-.4-2.3-.6-3.7-.7l-2.2.3c-4,1.3-6.8,4.1-9.5,7.1-2-.1-4-.3-5.9-.6l-.8-3c-.9-3.1-2.1-5.9-3.4-8.8-.7-1.7-1.5-3.4-2.2-5.1h-2.5c-1-3.6-3.6-6.8-6.6-9,.4-.7.9-1.6,1.1-2.5l4.3.9v-7.1s1-3.2,1-3.2l-3.9-3.2c-2.3-1.9-4.6-3.5-7.1-4.7h62.2s-.2,75.5-.2,75.5h-58.9c4.1-2.4,7.7-5.9,10.2-10.1M414.2,381.5c5.3-4.5,9-8.6,16.6-9.1-2.8,5.9-9.1,10.4-15,11.8-2.2-1.8-1.6-2.1-1.6-2.7M430.5,344.8h1.3c1.2,2.8,2.9,6.1,4,10.4-1,0-1.7.4-2.3.4-4.1-1.3-2.7-8.1-3-10.9M406.2,393.2c-2.5-.7-4.9-.5-7.4-.5l-.7,1.5c.7-2.2,1-4.2,1.1-6.5,3.3-1.6,6.5-3.4,9.6-5.4,0,1.5.6,2.8,1.5,4h-1.3v7.8l-2.9-.9ZM389.4,390c1.6-.9,2.7-2.7,4.4-2.1-.2,7.1-5.8,13.4-5.8,19.1,6.8,0,12.2-1.8,14.2-8.9.6,0,1.6,0,2.7.3,0,9.7-22.2,20.8-29.2,23.1,2.4-13,15.4-17.9,13.7-31.6M331,401l.8,2.2,1.2,2.1,1.6,2,1.9,1.8,2.2,1.5,3.3,1.7h3c3.3-.1,6.1-.9,9-2.4-1,1.5-2.1,2.9-3.1,4.4-1,1.6-1.6,3-2.2,4.8l-.4,3.1v1.6c.1,0,.5,1.6.5,1.6l.6,1.6c1.1,2.3,2.4,4.3,4.3,6.1.2,2.1-1.2,3.6-2.4,5.2-1.5,1.9-2.9,3.7-4.1,5.9-.9,1.8-1.5,3.5-1.9,5.6-.6,3.6-.4,7.2-.6,10.9l8.6-2.1c1.8-.5,3.4-1.1,5-1.8,1.5-.7,2.8-1.5,4.1-2.5,1.2-1,2.2-2,3.3-3.2,1.2-1.6,2-3.1,2.8-5l1.1-3.9.3-12.9,8.7-3c3.8-1.5,7.5-3.3,11.2-5.2,6.7-3.7,13.2-8,17.9-14.1.7-1.1,1.3-2.2,1.8-3.3v57.8h-78.2v-61.2.6ZM333.9,355.4c1.3.5,2.7,1,4,1.5,1.6,2.6.9,5.9.3,8.7-1.6,6-3.9,11.8-5.8,17.7-.6,2.2-1.2,4.3-1.6,6.4v-35.9c.9.6,1.9,1,3.1,1.5M379.1,355.7c2.5,0,4.1,1.7,4.1,3.7s-1.6,3.8-4.1,3.8-3.7-1.5-3.7-3.8,1.4-3.7,3.7-3.7M370.1,354.6l-3.6-6.3-4.7,5-4.9-5.2,5.9-4.1-5.5-5.7,5.5-4.7,4.3,6.5,4.3-5.3,5.4,5.8-5.8,4.9,5.1,3.8-6,5.5ZM354,359.9c-.4-3.3-1.2-6.3-2.3-9.4l10,10.6,3.7-3.8,3.4,6,1.5-1.5c.4,1.8,1.6,3.8,3,4.8-4.3,3.5-8.4,7.2-12.3,11.2-1.3,1.4-2.6,2.8-3.8,4.3-3.6,4.5-6.7,9.1-9.1,14.4-.3.2-.5.4-.7.7-.3,0-1.9.2-2.2-.1-.5-1-.4-2.4-.4-3.5.5-6.5,2.8-12.7,4.9-18.8,1.6-4.3,3.5-8.6,4.5-13.2v-1.6ZM387.6,355h0c-1-2-3.2-3.5-5.3-4.2l2.3-2.1-4.8-3.6,5-4.1-13.6-14.5-3.5,4.4-3.6-5.5-14.3,12.5,5,5.2-4.6,3.3c-1.3-2.6-3-4.9-5.1-7-1-.9-1.9-1.6-3-2.2-1.3-.6-2.4-1-3.8-1.4h-2.9c0-.1-2.9.6-2.9.6l-1.5.6v-26.2h76.5c-1,.5-1.9.9-2.9,1.5-2.4,1.4-4.8,2.8-7.1,4.3-1.6,1.7-3.1,3.4-4.4,5.3-1.3,2-2.5,4-3.4,6.2-1.1,2.9-1.8,5.7-2.2,8.8-.6,6.1,0,12.1.3,18.2M413,373c-6.1,4.3-17.2,11.8-23,11.8-.6-.7-1-1.6-1.8-2.2h-.4c0,21.3-11.7,24.4-23.9,40.8.3,13.7,3.9,26.6-13.9,30.4,0-11.7,11.2-13,8.4-23.3-14.3-13.4,7.9-15.4,3.4-32.7-.2-.3-.2-.4-.6-.7-5.1,5.1-10.3,10.4-17.9,9.9-21.6-9.6,10.8-41.8-2.1-54.5-9-3.8-9.8-2.2-7.8-10.8,8.6-4.3,15,11.5,15.4,19.4-1.2,6.7-21.4,46.3,1.3,41,.9-1,1.9-1.6,2.7-2.7,8.1-18.5,25-28.9,40.4-42.1-.6-15.8-3.2-25.4,7.7-36.8,11.1-6.7,14.4-9.8,25.8-.3-.1.3-.1,1.2-.1,1.9-.9,0-15.8-9.3-12.1-2.3,19.4,5.4-2.4,18-4,3.7-3.2-1.3-3.8-3-4.7-3.3-1.2,1.4,4.5,10,8.7,11.6,9.1.2,17.6,7.5,12.8,19.9-6.5,0-14.7-9.7-16.6-6.6,8.7,11.5,23.3,16.7,39.5,17.2,2.4-2.7,9.8-12.3,13.2-4.7-20.2,18.4-45.1,6-65.2,16,2.8,3.1,9.8-.7,15.1-.7M319.1,298.1h176.2s0,88.2,0,88.2h-6.1l.2-80.9h-163.9c0,0,0,161.6,0,161.6h83.5v7.9h-89.9v-176.9ZM316,324c-.9.1-1.9.6-3,.8-1.5-1.2-3.3-2.5-5-3.2,0-21-11.5-29.2,11-36.5-1.6,13.3-3.1,23.9-3.1,38.8M244.9,499c.4,0,1.3,0,2.1.1,3.7,6.1-4.1,12.2-9.4,13.4-1.1-7.3,3.4-7.7,7.3-13.5M235.8,458.9c3,7.5,9.3,21.3,4.1,31.5-.2-.5-.2-.6-.2-.6-.9-2.2-18.8-34.7-3.9-30.9M218.3,543.4c17.5-13.8,10.8-40.8,6.5-57.5,0-3.9,1.1-6.8,1.6-9.6.3,0,.9,0,1.2.1,7,17.6,15.3,64.6-10.3,73,0-2.7,0-4.3.9-6.1M218.3,492c-.5-2.2,2.2-4,3.9-6,6.9,19.8,6.9,49.1-4.8,54.3.1-2.9.4-5.6.9-8.4,7.6-13.3.7-33,0-39.9M155.1,495.4c6.6-13,8.5-25.3,8.5-38.4,1.4,0,5.4,3.8,8.1,5.7.9,12.3-5.8,46.8-19.8,51.3-4.3-12.6-5.2-9.4,3.1-18.6M148.5,485.6c3.5-7.5,4.7-17.5,4.7-28.1,0-24.6-2.5-59.1,5-81.4,2.1-1.8,5.5-2.2,9.3-2.8-3.4,14-5.5,28.2-6.7,43.7-.3,16.6,4.8,67.8-13.4,82.7.1-4.1.1-9.8,1-14M105.2,526.4c.8-29.5-3.4-108.3-4-127.3,2.3-1,4-.7,10.9-2.2,0,40.5,5.6,82.3,4.7,124.1-1.5,15.3-4.7,28.3-12.3,42.7h-1.4c-7.8-18-1.3-20.2,2.1-37.3M86.1,387.8c4-1.8,8.7-5,14.7-12.4,12-22.1,19.4-46.2,30.9-68.4,4-8.3,8.8-16.2,13.3-24.4h11c-9.5,17.4-18.2,34.1-26.5,52-7.9,22.8-19.4,57.5-46,66.4,1.3-5,1.8-11.1,2.7-13.1M141.8,280.7c-1.9,9.4-13.4,26.6-18.7,36.2-3,6.6-22.3,66.6-37.2,66.6-.1-3.2.1-5.9.8-8.6,3.2-3.5,5.5-8.3,8.5-13.4,11.5-30.8,21.5-58,39.3-84.8,1.7,0,4.7,1.9,7.4,4M172.7,291.8c0,.7-6.7,13.5-11.9,23-13,27-14.3,57.4-46.6,64.5,2.2-5,5.4-10.5,5.8-10.8,2.8-1.9,9.1-4.6,12.7-11.1,11.8-25.1,22.5-49.9,36.5-73.9.5-.1,1.2-.1,1.7-.1l1.9,8.5ZM235.8,273.8c-18.5-5.9,2.7-29.5,10.2-34.7q0,.1.1.4c-3.4,5.9-12,15.6-10.8,24.6,7.8,9.8,16.9-3.1,22.4-3.9-.7,1.3-1.8,3.5-3,4.5-5.3,5.8-10.2,9.1-18.9,9.1M170.3,372.7c.1-.5,6.1-3.4,11-5-4.1,22-7.5,42.9-9.2,65.8-1.3,1.2-7.2,4.4-8.5,3.8-1.6-13.5,1.3-30.4,2.4-43.1l4.4-21.5ZM202.9,343.4c0,7.2-4.4,21.1-6.2,29.6-3.8,21.2-7.4,48.7-16.7,69.2h-.5c-1.6-3.2-4.4-6.2-5.2-7.2,10-27,13.1-50.4,18.1-77.8,4-3.9,7.5-8.2,10.4-13.7M209.2,300.7c3.7.2,8.2-.2,11.7.2-16.7,26.9-20.5,55.8-51.7,68.5-5.5,1.4-11,3.1-17.1,4.7,2.8-3.9,4.7-9.3,7.2-12.6,34-9.6,32.8-32.6,49.9-60.9M206.3,300c-12.1,21.7-17.4,52.6-44.6,57.2,1-4.6,1.5-8.2,4.3-10.3,2.1-1.8,8.9-2.8,12.4-9.7,7.5-15.5,12.4-32,22.3-45.3,2.1,0,4.6,3.9,5.6,8.2M211.1,290.7c7.4,7.7,19.9-3.2,25.9-9.5q.4.2.7.6c-7.9,8.9-13.5,16.8-25.2,16.8-18.1-7.9,5.8-35.9,11.2-37.1-2.8,9.4-15.5,17-12.7,29.2M211.8,257.4c11.2.8,31.5-22.5,34.3-22.9-10.8,13.9-20.2,27.5-38.5,27.7-24.3-5.1-5.1-25.3,6.1-34.8q0,.1.1.3c-4.6,7.9-19.4,25.8-2,29.6M190.8,284.6c6.5-1.9,24.1-17.7,25.2-18.8-8.2,12-19.5,24.5-34,24.5-22-6.1,4.5-40.3,11.7-44.2,0,4.6-31.2,41.4-2.8,38.4M195.2,478.3h-.8c-3.2-1.5-4.9-2.4-6.3-2.5-.7-3.7-2.8-10.4-2.4-12.5,1.8-.6,3.2-1.8,6.3-1.1q2.9,13.3,3.2,16.1M201.8,457c0,8.4-.4,13.8-3.1,22.9h-.5c-1.8-9.2-7.7-21.8,3.5-22.9M291.6,382.1c-3,15.5-14.2,43.6,6.8,51.4,0,8.7-17.7.8-20.4-1.2-15.5-21-5.7-32,2.1-51.9-9.4-5.6-12.1-9.8-10.4-19.2,6-15.5,9.3-25.4,6.8-40.8-.8,0-1.5,0-1.9.2,1.9,23.9-1.8,28.4-22.3,44.3-1.8,1.3-4.3,2.8-4.3,5.2.5,7.6-.6,14.6-5.3,21.7-7.6,10-13.2,7.9-18.1,14.8-4.3,26.4-17.5,55.8-47.1,54-26.9-7-6.9-31.7,0-18.2,2.4,5.1-1.2,8.3-5,9.9,21,13.8,41.7-19.3,44.2-33.5.9-6.2,2.1-11.7,3.3-17.6,17.5-7.8,24.8-14.6,24.8-34.3,15.4-15.3,31-18.5,22.5-44.5,0-.4-.3-.4-.6-.4-1.6,1.9-1.6.4-1.6,3.3,8.4,18.7-10.2,30.6-23.5,39.6-.3,23.1-2.1,23.6-24,34.4-1.8,7.8-3.4,15.3-5,23.3-7.1,20.7-19.7,31.7-35.1,29.7.7-2.6,1.6-3.2,3.1-5,24.6-47,16.8-175.6,91.7-175.6,47.7,11,26.4,77.7,19.2,110.5M316.3,363.8h-1.6c-14.1-5.7-11.4-26.1-7.1-35.8,5.5,0,3.1,15.8,9.1,23-.4,3.9-.4,8.3-.4,12.8M307.6,417.3c3.4-2.4,5.5-4.9,8.7-6.1,0,4.9,0,9.4.4,13.6-1.2.8-3.4,2.4-4.7,1.9-.9-4.1-3.9-7.8-4.4-9.4M301,359.8c0-.5.5-.5.5-.5,3.3,8.3-3.1,33.1,12.8,25.3h.8c0,4.7,0,9.4.1,14.3-3.2,1.3-6.5,1.3-8.9,1.3-17.6-4-9-29.8-5.3-40.5M289.5,419.6c0-9.7,1.5-16.8,2.7-24.8h1.1c3.2,8.9,10.6,19.3-3.8,24.8M268.9,384.1c-.3-.6-.3-.9-.3-1.3-11.6-4.6-7.2-19.3-1.4-25.2,0,13.4-6.8,12.9,8.6,23.3,0,2.3-6.6,18.2-8.3,23.7,0,16.7,7.2,40.8,30.9,34.2,2.5-1.6,2.5-3.8,2.6-5.2-3.2-5.3-7.1-1-7.1-11.1,8.6-12.6,26.7,12,.2,21h-6.9c-28.3-8.2-26.3-37.7-18.3-59.3M252.9,437.2c4.7,1.8,8.4,3.3,15.6,4.4,2.4,8.3,5.1,17.1,11.6,24.4v1.6c-.3,0-.6,0-.9.1-11-2.9-28.3-21-26.3-30.4M252.1,444.8h.7c1,2.8,15.7,28.7,2.2,28.7-11.2-3.1-14.2-9.8-15.9-18.7,7.7,1.2,9.8-2.6,12.9-10M256.6,403.4c.8-3.2,1.6-6.5,2.4-9.8,0-.1.3-.1.4-.1,1.5,14.1-2.4,31.5,10.4,42.6-.5,0-.5.1-.5.6-1.6.1-3.4.6-5.2.7-30.3-3.1-13.1-17.7-7.5-34M239.9,434c2.3-.9,2.7-1.8,6.1-1.8,2.7,7,4,18.6-7.2,18.6-.3-.1-.3-.3-.3-.3,3-5.9,3-10.8,1.4-16.5M359.5,257.4c5.5-4.6,4.8-18.2,3.9-23.8.5,0,.6-.2,1.3-.2,2.7,2.4,4.7,1,8.3,3.5,0,15.4.9,30.1-18.3,30.1-9.3-4.3-11.8-12.2-15.8-19.6,0-2,8.3-12.4,8.3-12.4.7,4.3,3.4,22.4,12.3,22.4M383.1,193.1c11,0-.7-22.3-2.4-24.8,2.5.7,4.6,1.9,9.1,2.4,5.1,10.3,11.5,31.7-7.8,31.7-7.1-3.3-14.4-10.9-16.4-16.8,2.5-2,3.5-5.9,4.6-8.1,2.1,3,7.9,14.3,12.9,15.7M431.2,274.3c-10.6-2.1-19.5-14.5-23.9-21.6,3.3-5,4.9-6,6.6-12.1.7,0,.9,0,1.3.1,2.6,6.8,6.2,16.6,14.2,20.8,9.9,0,3.3-23.7,1.9-28.5,2.2,0,5.7,3.1,10.4,3.8,4.9,10.9,4.3,35-10.5,37.4M406.3,266.6c.8,0,16.1,25.3,18.7,8.6,1.3,0,5.7,1.9,8.7,2.8,0,15.6-3.1,15.6-18.3,15.6-12.4-5.1-9.9-18-9.1-27.1M407.3,186c4.9,0,8.4,1.4,11,4,6.6,9,4.7,28-7,29.1-11-2.4-14.9-8.4-20.5-14.9,2.1-2.7,4.9-6.5,5.6-9.3.1-.4.3-.4.9-.4,1.3,3.2,8.9,19.9,16.2,14.3,1-9.8-2.8-16-6.3-22.8M398.6,251.1c-7.4-1.1-10.5-4.4-14.3-7.6-10.5-12.2-6.6-9-.4-19.4,2.5.9,7.7,22,16.9,15.8,3.3-6.8-.5-18.5-2.7-23.2,2.8,0,5.5,3.2,10.5,4.5,3.9,11.8,6.7,28-9.9,29.8M370.4,199.6c3.2,1.3,7.2,3.2,11.6,4.7,4.3,9.1-.6,28.5-13.7,28.5-7.3-3.1-12.8-10-14.2-15.7,2.4-2,4.7-5.7,6.1-7.9,2.5,4,2.8,14.1,11.7,14.1,6.3-2-1.2-21-1.5-23.7M374.3,287.5c-1.8,3.2-1.8,6.2-8.4,6.4-6.4-.3-12.9-.3-12.8-2.5.7-3.3,2-6.3,4.4-13.4,1.5,0,7.3,9.5,10-.9,3.8,0,5.5,6.3,6.7,10.4M366.8,267.3c4.7-2.2,6.3-6.2,7.5-10.5h.9c2.5,7.6,4.6,16.4,12.9,22.4,9.3-1.1,4.5-22,3.9-27.2,1.8,0,5.5,2.8,10.1,3.2,5.3,10.2,0,34.4-13.4,36.6-10.3-4.3-19.8-16.1-21.9-24.5M461.3,256.8c10.2,3.3,16.6,34,1.1,36.1-10.2-2.1-19.4-10.3-21.1-19.1q2-3.9,3.4-7.7c3.8,4.9,5.8,12.8,13.8,14.2,6.8-4.4,3.3-18.7,2.7-23.5M440,199c15.9,0,24.5,30.8,1.3,34.6-7.9-2-18.5-9.8-20.1-14.5,1.2-4.5,2.8-8.3,4.4-12.3,1.9,3.2,10.6,19.4,18.8,16.2,3.4-8.5-1.4-18-4.4-23.9M416.1,154.2c0-.6,0-1,.3-1.5,3.1-.1,6.4-.6,9.8-.6,5.5,11.5,13.7,34-7.8,34-6.2-2.2-19.6-9.8-19.6-16.1,3.1-2.4,5-4.7,7.1-8,3.8,4.3,5.6,15.9,15.6,15.9,4.7-4.8-3.4-22.8-5.3-23.6M390.9,134.4h6.5c5.1,12.1,14.3,29.1-4.9,32.6-6.3-.9-20.5-8.5-20.5-12.9,2.6-1.6,3.5-2.2,6.3-2.8,3.1,2.6,6,5.7,10.9,8,14.2,0,3.2-19.8,1.6-25M359.9,153.2c1.4-.6,2.8-1.8,5.9-1.2,3.3,7.5,10.4,28.4-6.7,28.4-6.9-1.8-17.5-9.1-17.5-14.8,1.3-1.2,1.5-2.8,3.9-2.8,3.2,3.8,10,14.7,17.5,8.1,3-5.8-1.4-12.9-3.1-17.6M339.8,191h1.5c.3,9.2,7.5,26.1,12.8,7.2-.3-4.6-.6-9.7-.6-14.4,3,.4,5.6.9,8.5,1.2.7,13.6.5,30-17,30.9-6.6-2.4-11.6-13.1-12-18,2.8-1.9,5.1-4.3,6.8-6.9M321.6,217.1c1-5.9,1.9-12.2,3.9-16.9,1.6-.7,3-1.2,4.4-1.2,3.5,5.3-4.1,15.1-8.3,18.1M326.2,194.1c0-2.4.4-4.7.6-7h3.7c3-7.9,2.6-14.4,2-21.5,1.5-.9,3.8-.6,5.9-.6,3,8.3,3.9,31.2-12.2,29.1M334,280.1c7.6,11.2,13.3-9.1,14.3-14.4,2.1,2.6,3.7,4.8,8.1,7.9,0,10.6-12.4,22.3-23.4,22.3-11.5-4.6-12.4-25-13.7-33.7,4.1-3.7,8-7.1,12.4-10.8.7,9.6-1.6,17.7,2.2,28.7M302.5,277.6c5.1,0,8.1-1.6,12.2-6.1h.8c.5,1,4.4,6.1,4.4,9.5-6.2,4.7-10.2,5.7-17.3,6.1-.5,0-1.2-.4-1.8-.4-6.2-12.4-19.1-14-.6-20.2,0,4-4.5,8.4,2.2,11.2M261.3,245.7q2.4-.9,4-.9c-.6,2-1.3,3.2-2.1,3.9-1.5,2.5-6.8,2-8.1,2-14.2-7,3.9-33.8,9-29.8,0,3-18.7,22-2.7,24.8M226.4,211.2c4.1-3.3,2.8-5.5,8.2-3.4-.8,5.1-19.6,20.2,0,22.5,12.3,0,15.4-8.5,24.4-13.1.7.9.4,0,1.7,2.8-10.6,10.3-18.5,15.5-33,15.5-15.3-3-8-14.5-2.2-22.8.1,0,1.9-1.5,1-1.5M215.8,215.8c3.2-2.9,5.9-5.6,9.5-8.4q0,.1.1.4c-11.6,15.5-12.9,19.1-31.7,21.3-14.8-3.4-10.4-14.6-7.2-25.2,1-.2,2.8-.2,4.4-.2.3.2.3.7,1.1.9-11.5,21.6,8.9,19.9,23.9,11.2M166.9,240.8c5.9,8.2,34.9-9.6,36.8-8.9-11.1,10.4-21.3,16.4-35.6,16.4-23.8-6.6,5.3-33.2,13.3-40.6h1c-3.1,12.7-21.6,24.7-15.5,33M151.7,273.8c14.3-2.8,24.7-14.4,34.3-25.4q.5,0,.8.2c-9.8,15.9-20.8,29.6-39.5,30.9-27.7-7.6,1.9-38.7,10.9-48.3,0,10-29.7,37.8-6.5,42.6M87.5,403.6c2.8-1.6,7.1-2.7,10.4-5.2.7,35.9,1.6,73.5,4,109.7,0,12.2-3.3,39.7-6.1,34.2-6.6-16.9-2.7-14.9-2.7-31-2.8-36.3-5.7-72.2-5.7-107.7M102.7,394.7c-.4,0-.7-.1-1-.1,3.7-3.9,6.9-8.1,10.6-11.8,36.3-5.2,37.6-35.6,50.7-67.2,4.1-8,8.5-15.6,12.7-23.8,2,0,7.8.7,12.4.7-6.1,10.4-12.6,20.5-17.6,31.5-16.4,45-20,63.4-67.8,70.8M121.6,394.7c3-.6,6.1-1.2,9.2-1.5,2.4,30.7,2.4,63.8,2.7,96.6-.9,7.4-5.1,27.5-12.4,32.6-.4-6.1-1.2-11.6-1.2-12.1,1.5-2.5,3.1-5.9,3.4-7.4,2.4-6.1,1.2-12.6,1.9-18.9-1.2-29.7-4.1-60.8-3.7-89.3M127,537.8h-.8c-2.8-7.5-4.6-11.5-3.7-12.1,11.5-11.7,12.6-22,13.6-36.9,2.6-31.8-1-66.2-1.7-97.1,2.6-1.8,8.1-5.1,9.7-8.2h1c0,38.8,2.4,78-1,116.8-1.4,11.7-10.3,26.7-17.1,37.5M156,601.5c-7.4-27.5-14.6-46.1-22.7-67.2,1.3-5.6,5-7.6,6-11.8,1.8,1.9,22.3,71.1,26.7,88.9,5.9,23.2,3.4,49.5,1.1,45.3-.5-2.9-3.2-5.6-3.1-8.4,1-15-3-27.1-8-46.7M163,506.4c1.4-.7,2.6-4.4,4.1-8.8,1.8,1.9,3.9,8.8,5.2,12.8,6.5,21.6,21.3,63.9,6.5,86.1,0-.1-.3-.1-.3-.5-.8-4.5-2-9.7-3-14.3,11.2-15.1-13.5-69.4-12.5-75.3M181.4,602.4c17.1-34.1-.6-76.8-11.7-107.7.7-3.9,1.9-5.7,3.1-8.3,9.3,9.3,18.1,52.5,20.6,67,1,10.4,2.8,52.8-10.6,59.7h0c-.7-3.4-1.1-7.1-1.3-10.8M192,498.2c-29.6-4.3-1.4-32.4,3.2-9.4,8.8-6.3,8.8-28.7,13.3-38,10-10.8,16.8-26.9,18.2-42.5,4.7-.8,6-2.5,11.8-6,11.5-9.1,12.7-20.8,13.4-33,2.4-2,4.7-4,7.1-5.8,0,22.7-3.8,52.1-22.6,68.2,1,14.9-3.1,16.4-11.5,32.4-6.6,20.1-9.7,33.5-32.9,34.1M203.3,502.4c2.1-2,3.1-3.7,5.7-4.5,4.4,23.9,14.3,57.3-9.1,75.7-.5,0-.8.1-1.3.1,0-2.7-.2-5.7-.8-8.3,15.6-15.4,8-41.1,5.6-63.1M199,535.5c-1.4-10.4-2.8-20.7-4-31q2.4-.8,5.5-1.4c3.3,8.1,10.6,52.3-3.7,58.9-.2-2.6,0-6.6-.2-8.1,3.3-4.4,2.2-11.6,2.5-18.3M287.1,576.2c1.9-.1,4.5-.1,6.8-.1,0,1.9.2,3.9.8,6-1.4,0-2.6.3-4,.6-4.3-2.2-3.5-4.1-3.5-6.5M285.6,582.7c4.7,0,1.5,16.7,3.9,23.6,3.8-3.9,4.6-15.9,5.7-19.9.6,0,1.4,0,2.6.2,0,18.6-1.2,40.2-13,56.3h-1.2c-9.4-17.3-2-43.6,2-60.3M280.6,529h.9c.7.7,1.4,1.4,1.4,3.9-7,19.5-13.7,38.2-12.7,61.4,4.6,0,8.9-19.5,9.5-21.6.3-.1.8-.1,1.5-.1,5.9,9-10.6,44.9-17.3,54.7h-1.4c-6.6-30.9,6.5-70.9,18-98.3M250,574.4c13-13.3,18.9-32.8,25.6-49.3.4-.5,1-.5,1.6-.5,2.4,10.4-23.4,68.8-37.7,81.2,0-33.1,13.7-59.7,26.1-90.1h.9c.6.6,1.1,1.6,2,2.4-7.2,18.2-15.6,36-19.2,56.2q.2.1.6.3M317.6,575.4c-1.3-.2-2.6-.3-4-.6v-1c1.9-1,4.5-3.3,6.7-3.3.6.6,2.2,2.2,2.2,4.7-1.6,0-3.3.2-5,.2M305.3,576.1c4.6,3.4,7.2,4.4.3,5.2-9.9-1.4-8.4-7.1-.3-5.2M305.1,585.3c.6-.2,1.9-.2,3.2-.2,0,2.5-2.8,23.3,2.7,26.1,8.3-10.3,2-29.6,10.4-32.5,1.6,3.2,4,68.5-12.4,74.8-7.6-19.1-10.2-50.8-3.9-68.2M321,560.1c.8,5.9-7.9,14.6-14,12.6-.5-2.6-.7-5.1-.8-7.3.8-.2,1.9-.2,2.8-.2q0-.1.4-.4c-4.6-9.4-13.1-7.1-8-20.1,1.7-1.4,3.3-3,4.9-4.5-3.2-8.4-7.9-20.7-12.4-27.1-9.8-9.5-13.3-13.2-14.1-11.8,9.2,7.7,22.7,24.4,22.7,38.5-14.6,18.2,2.2,16.3.6,32.9-1.2,1.4-5.9.5-6.5.5,0-4.5.7-4.9,1.8-7.7-6.3-7.8-12.3-8.9-4.5-20,6.4-4.7-8.2-28.6-13-32.5-3.4-2.4-6.7-4.4-10.2-6.6v.6c14.9,10.4,18,17,22.6,36.3-15.6,15.5,5.6,18.7-.8,29.4-2.2,1-4.5.9-6.6.9,0-4.1,2.1-4.1,2.5-6.6-15.9-10.3,2.4-18.6,2.4-27.3-6.5-29.5-54.9-32.2-44.4-63.9,1.9,0,5.6,2.4,9.7,2.4,9.8-3.1,6.6-7.7,8.1-14.8,9.7,8,16.8,15.2,32.2,13.6,0,0,0-.2.2-.5-25.8-19,16.1-43.6,17.8-19,0,0-.1.1-.5.1-3.1-2.5-5.1-5.5-7.6-2.8,10.2,6.8-.5,11.2,6.2,17.9,7,10.6,6,15.4-6,21.5,0,5.5,9.5,15.4,10.4,26.9-.4,6.5-2.6,15.2.1,23,5.5,6.8,3.1,6.1,1.3,14.9.6.6,1.8.7,2.8,1.3M409,501.6l.4,4,.6,3.9.9,3.9,1.1,3.8,1.3,3.8,3.3,7.4,4.1,7.3,4.8,6.9,2.2,2.7c-1.8,0-3.8.3-5.1,1.6l.2-1.2-4-1.8c-5.3-2.1-11.8-.7-15.8,3.3h0c-3.1,1.5-6.8,3-9.5,5.3.1-3.5.1-7,0-10.5-.3-6.4-.9-13.1-4.2-18.8,1,0,2.2.1,3,.7.2.2.3.3.4.6l1.4,6.2c2.4-.3,4.8-.4,7.1-1.2l4.8-.2.4-7.6v-2.7c-.1,0-.5-2.6-.5-2.6l-.7-2.4-1.1-2.2-1.3-2-1.6-1.7-1.8-1.4-2-1.1-2.1-.7-2.1-.5-2.1-.3c-2.1,0-4,0-6.1.3-.2-1.5-.5-2.8-.9-4.2-.5-1.3-1.1-2.5-1.8-3.7-.9-1.1-1.6-1.9-2.7-2.7h29.5v3.8s.1,3.8.1,3.8ZM339.4,534.6l-2.4,1-.8-4.6c1.1,1.2,2.1,2.4,3.2,3.7M334.8,521.3c-1.2-9.1-2-18.2-1.9-27.4h33.8c-.6.3-1.3.7-1.9,1.2l-1.7,1.4c-3.4,3.1-5.6,6.5-6.9,10.8-1,3.5-1.4,7.2-.9,10.8l2.1,10c-1.9-.8-3.8-1.8-5.7-2.7-3.2-1.6-6.3-3.2-9.9-3.8l-6.9-.3ZM357.5,596.2l-1.9-3.9c-2.4-5.2-4.6-10.3-6.7-15.6-2.1-5.5-3.9-11-5.7-16.5l-.3-1.1,3.6.9,6.6-1.2c2.2,1,4.5,2.2,6.9,2.9-.6,6.2-1.2,12.3-1.8,18.5-.4,4.1-.9,8.4-1,12.5,0,1.2.1,2.3.3,3.4M529.7,769.9l-.2,4.3-61.2.6v-4.9c-.1,0,61.4,0,61.4,0ZM479.1,763.7c-.4,0-.6,0-.6.3-3.9-6.5-6.8-12.4-6.8-18,2.6-.7,7.5,12.4,7.3,17.7M467.1,732.5v1.5c-3.8-6-7.7-12-12.5-17.2-1.6-1.6-3.2-3.2-4.8-4.8l-1.2,5c-.1.7-.2,1.3-.3,2-1.9-3.7-4-7.2-6.2-10.7-.9-1.4-1.8-2.8-2.8-4.2-2.3-3.1-4.7-6.3-7.4-9,7.8,3.3,15.7,6.2,23.7,8.7,6.8,2.1,13.5,3.9,20.4,5.5v30.5c-1.3-1.2-2.5-2.5-3.8-3.7-1.6-1.3-3.4-2.4-5.2-3.5M456.2,759c-.3,0-3.1,1-3.6.9-6.7-11.8-19.7-43.2-24.1-59.1,5.9.4,27.1,50.6,27.7,58.1M454.9,726.9c2.8,1.6,10,21.1,13.2,28.1-.6.4-.7.4-1.3.9-.6-.3-1.5-.4-2.2-.3-4.2-6.9-11.5-22.4-9.7-28.7M448.1,793.9c-.2.8-.5,2-1.3,2.5-4.7.6-6.7-2.4-9.8-5.6,2.2-1.7,2.4-1.6,3.7-1.9,2.1,1.4,4.9,3.2,7.3,5M453.6,788.5c-.6.9-.6,1.6-1,2.4-1.1,0-1.7,0-2.6.3-2.2-1.4-4.4-3.2-6.5-4.7v-2.2c2.4-2.5,6.9,1,10.2,4.4M458.2,772.1c.8,0,1.8-1.3,2.2-1.6,1.8,0,4.4,4.4,6.8,7.1-.9.9-1.2,1.2-2.4,1.2-3.5-2.1-6-4.7-6.6-6.6M458.9,780.8l2.2,1.9c-1.2.7-2.7,1.7-3.7,3.1-3-2.3-6.2-5.1-7.4-6.5,4.4-3.1,7.8,1.2,8.9,1.5M428.8,800.1c0-1.8,1.9-4,5.2-6.6,5.5,5.5,11.4,6,.6,14-.8-.1-1.3-.1-2-.1,3.7-5.8,2.4-8-3.8-7.3M433.6,814.3q-4.7-.5-5.3-.7c-.3-.9-.3-1.5-.3-1.8.4-.6,1.2-1.2,2-1.5,13.7,0,29.7-28.2,40.9-32.6,1.6-.6,3.1-.1,4.9.6-8.4,7.8-34,34.5-42.2,36.1M434.4,836.6c-10.9,0-20.5-.2-31.5-.2,1-1.5,21.1-17.7,23.3-20.7,11.6,3.4,7.3,6.7,8.1,20.9M452.1,872.4c4.5-4,21.6-19.2,25.9-18.1-4,3.7-20,20.1-24,20.1-.9-.5-1.3-.9-1.9-1.2v-.8ZM442.1,857.1c-4.3-4.4,12.9-16.1,19.2-16.1v.6c-3.1,2.5-15.8,15.5-19.2,15.5M445.4,864.3c4.6-4.1,26-26.1,32.5-22.8-6.5,6-24.8,20.4-31.3,26.4-1.7,0-1.1-1.5-1.2-3.5M507.5,841.6v64.3l-7.7-5.5-7.5,5.5v-64.3h15.2ZM549.6,873.5h-2.8c-10.5-2.2-33.8-10.2-34.9-19.6,0-.1.1-.5.5-.5q37.6,19.8,37.2,20.1M538.5,860.8c-8.9-5.3-17.6-10.4-26.6-15.3v-1.4c0-.1.1-.1.5-.1,10.2,4.3,17,7.5,26.5,15.8,0,.3-.1.8-.4,1M550.4,857.4h-.9l-2.6-2.8c-1.7-1.5-5.6-12.2-6.1-13.6,5.5,0,7.9,9.3,9.6,16.4M439.5,837v-17.7l13.6,5.9h96l13-6v17.9h-122.7ZM559.7,866.3h-2c-5.3-2-7.1-9.8-6.5-12.9,2.1,2.6,6.8,7.9,8.5,12.9M553.6,841h3.4c4.9,9.7,9,20.3,13,31.7-.1,0-.5.4-.5.4-6.1-9.9-13.4-23.6-15.9-32.1M613.7,818.4c4.3,1.8,6.6,3.4,7.3,5.4.5,1.9,0,4-3.1,7.9h-1.2c-3.7-5.1-4.9-9.1-3.1-13.3M610.2,812.5c-5.1-3.9-10.9-6.6-10.9-11.1,2.5-2.2,5-.1,8.4-2.4-.1-2.5-.8-4.6-.8-6.6,7.9-8.3,13.3-1.7,21,3.3.6-.9.7-1.8,1.2-2.7,19.4,0,46.9,2.4,57.5-19.8,1.6-8.3,2-12.1,3-23.8.8-11.2,3.2-29.5,21.2-29.2,14.6,7.6-15.8,55.8-21.9,66.1-21.2,17.4-33.2,17.7-56.4,12-11.6,0-12.8,1.9-17.7,12-1.5.5-3.1,2.2-4.4,2.2M741.2,514.3c.9-.6,2.1-.7,3.2-1.2,12.8,16-1.6,21.2-7.1,37.9h.7c3.2-3.8,6.4-7.6,9.6-11.2,5.8,0,6.9,5.8,6.9,12.1-8.4,31.8-48.8,34.2-67.9,57.3-4.1,0-4.9-2.2-6.6-2.7-.1.5-.7.9-.7,1.3,12.9,17.5,7,48.4,5.1,69.8,4.9,13.5,10.9,25.7,23.6,38.1,0,.6.3,1.1.3,1.5-37.6,6.5-8.4,57.6-36.1,66.5-8.9,0-8.1-.6-10.6-6.4-3.2,3.8,3.4,8.2,4.7,9.5-17.7,8.5-32.6,2.4-50.4-1.9-11,1.2-13.3,7.2-18.2,16.4h-1.5c-3-2.1-6.4-4-9.5-6-.3-1.8,4-1.3,5.5-2.8,5.7-20.2,19.9-9.9,38.1-9.1,17.4-.6,21.3-3.1,31.8-17.6,26-51.6-9.7-65-35.1-101.3-5.6-17-7.2-19.3,7.4-32.5,23.2-27.6,31.9-45.7,40.8-78.1,1.7,0,2.7-.3,6,.2,0,1.4,0,3.1.1,4.9,4.7,0,11.4-1.8,17.3-2.6-.2.8-.2,1.9-.4,2.6,8.6,6.7,27.2,0,27.2-12.7,17.6-15,5.6-20.8,6.5-37.4.7-2.9,6.8-16.3,10.1-14.7,1.2,7.1,1.8,10.6-.7,19.5.2,0,.2.1.2.7M770.9,462.6c-10.2,8.9-45.2,37-45.2,53.6,8.5,7.3,4.3,21.5-4.5,27.7,0,1.6.1,3.1.1,4.5-3.9.5-5.8.5-7.9,2.4,2.2,5.5-3.3,6.2-7.6,7-.1-.1-.7-.1-.8-.1,1.9-16.5,25-18.5,11.6-39,.8-4.6,12.2-24.4,12.2-25.1-4.3,5.3-15.2,19.4-15.2,27,7.3,6.9-3.4,23.9-8.8,29-2.4-.6-4.6-1-6.8-1.1-1.1.5-.7,1.2-.7,3.7-2.9,2.4-6.2,1.8-8.6,1.8-.1-.1-.4-.4-.4-.4,9.3-9.1,23.2-18.5,16-31.7,0-5.8,14.3-22,13.3-24.1-5.1,6.8-13.9,15.4-16.5,24.1,5.6,14.5-1.4,23-16.8,27.7q-3.9,0-5.6-.6v-1.7c1.7-1,3.8-2,5.7-3.9-2.6-14.3-12.5-13.3,1.6-24.8,1.9-1.1,3.9-2.2,6.1-3.2,3.7-18.3,18.2-18.1,31-30.4,3.2-14.1,13.2-22.7,29.2-17.3,11.7,0,50.1-95.5,53.6-102.9,3.9-3.7,8.9-1.4,9.8,5.2,6.4-5.1-11.6-15.4-12.2-15.5,0-4.4,24.8-4.4,23.4,13.4-7.2,39.9-27.6,65.8-56,94.9M817.4,474.9c-12.7-1.2-18.9-4.3-26.5-12.3-7.8-10.5-8.5-8.3-.3-17.1,7.4,2.7,9.2,17.1,22.8,19.2,1.4,2.9,3.3,5.8,5,10.3h-.9ZM764.4,470.5c2.1-1.6,4.9-5.8,8.3-5.8,6.2,6.5,12.4,12.3,20.6,19.1v.9c-3.6,1-8.4,1.3-11,1.8-6.6-1.8-17.9-11.5-17.9-16M788,497.6c-15.5-1.5-25.8-7-30.4-21.2,1.5-1.4,2.6-3.3,5.5-3.3,11.6,13.3,14.1,15.4,32.6,14.3,0,.1,6,7.2,5.7,9.4-4.7.2-9.1.7-13.4.7M858.2,583.3c-17-6.1-27.6-18.9-37.5-31.2-6.7-8.1-33.7-45.6-32.3-49.5h4c18.3,27,30.9,51.8,58.2,72.8,3.7,2.1,5.3,2.8,9.2,7.7-.6,0-1.2,0-1.7.2M874.2,601h-2.1c-47.9-5.1-81.5-66-99.7-101.5,3.3.7,7,3.1,12.4,3.1,15.3,25.3,42,79.9,78.1,84.9,3.8,4.4,8,8.5,11.8,12.8-.1.1-.5.6-.5.7M803.7,584.9c17.2,6,28.1,2,46.1,13.1,5.5,2.4,25.4,5.7,28.4,8.3-4.6,9.5-31.9,12.9-40.5,12.9-24.2-5.7-42-21.9-49-43.7,1.8,0,11.5,7.6,14.9,9.4M774.9,535h.7c5.7,6.1,11.7,12.9,18.5,19.4,12.1,8.3,22.2,13.8,20.6,16.3h-1.3c-19.6-5.2-33.4-18.9-38.4-35.8M782,555.2c14.3,9.2,20,17.5,38.7,20,1.4,1.5,7.4,5.7,8.9,9.7-2,.6-6.3.2-7.5.2-13.1-1.5-45.6-13.3-40.1-29.9M888.4,587.1c3.7,2.1,7,7.4,10.2,12.2-.4.1-.7.5-1,.6-22-13.5-36.8-35-51.2-54.2-7.5-11.1-36.7-52.2-35.5-55.8,1.4.5,3.3.6,5.6,1,20.4,33.2,41.8,67.5,72.1,96.3M826.4,488.6h-.8c-20.2-1.1-33.7-8.7-45.6-22.2-5-7.5-4.3-6,2.4-11.6.1.2.8.6.9.6,8.4,13.7,19.8,21.5,37.5,22.8,2.1,3.2,3.9,6.4,6,9.7,0,.1-.1.3-.4.6M833.4,339.9c.3-.7.5-1.4.8-2.2,1.3,5.9,2.6,11.8,4.3,17.6,1,3.3,2.1,6.6,3.3,9.8.7,1.8,1.5,3.6,2.4,5.3,6.8,13.2,13.6,26.3,20.4,39.6,2.8,5.7,5.6,11.4,8.4,17.2l5.3,11.6,2.5,5.8,2.4,5.9,2.3,5.9,2.2,5.9,2.1,5.9,1.9,6,1.8,6,1.6,6,1.4,6.1,1.2,6.1,1,6.1.8,6.2.6,6.2.4,6.2.2,6.3v6.3c0,0-.5,6.4-.5,6.4l-.6,6.4-.9,6.5c-.5,2.6-.9,5.2-1.5,7.8-.7,3.1-1.5,6.2-2.5,9.2-1.9-2.4-3.6-4.9-5.4-7.4-1.9-2.8-3.8-5.6-5.6-8.4-2.5-3.9-4.9-7.9-7.2-11.9-4.1-7.1-8.1-14.3-12-21.6-7.2-13.5-14.2-27.2-21.7-40.5-2-3.5-4.1-7-6.1-10.4-5.8-9.5-11.5-18.9-17-28.6-1.7-3.2-3.4-6.4-5-9.6-1.5-3.3-3.1-6.6-4.1-10.1,3.7-7.1,7.4-14.2,10.7-21.4,1.4-3.1,2.7-6.3,4-9.5.9-2.6,1.9-5.2,2.7-7.8.6-2,1.2-3.9,1.7-5.9.7-2.7,1.3-5.3,1.8-8.1.3-2.1.6-4.1.9-6.2l.3-2.9c-1.3-1.9-2.7-3.8-3.9-5.8-1.2-1.8-2.4-3.8-3-5.9,1.3-1,2.5-2,3.6-3.2.6-.7,1.2-1.5,1.8-2.3,1-1.5,1.8-3,2.5-4.7M824.6,221.5c-5-1.5-8.6-10,0-13.7,7-2.6,15.2-.3,22.4,5.7,7.9,11.4,6.8,23.4,5.9,38.4,9.1,7.5,9.5,17.3,2.1,27.6v.8c7,4.9,14.8,11,11,23.2-1.6,0-3,0-4,.2-.5-2-.6-3.8-.6-6.3-3.4-9.3-6.2-12.3-13-16v-.8c6.9-10.2,6.5-17-1.2-24.6,1.6-22.9,4-33.1-15.6-44.6q-.4,0-.7.3v.9c5.6,5.6-1.3,10.3-6.3,8.9M870.9,253.5c-.3,0-1.2,0-2.2.1-1-.1-2.1-.7-3.2-.9-1.1-7.1-5-8-9.5-10.4-.3-1.9-.6-4-.6-6.1,10.6,1.3,14.5,5,15.5,17.1M879.7,258.2c0,10.2-5.1,20.4-11.8,28.8h-1.3c-2.5-1.9-4.3-3.1-4.6-4.4,4-3.3,12.8-14.3,11.4-19.8-3.5,0-7.2-.6-10.5-.6-.7-1.8-.8-3.1-1.4-4.5,1.6-1.6,14.7,0,18.3.5M900.3,304.7c-.2,11.5.3,19.3-14.6,20.8-6.5-.9-8.4-5.2-4.5-9.3,2.4-.8,4-.4,5.1,1,0-12.5-8.7-13.7-17.7-14.6,0-25,26-16.8,31.7,2.1M882,271.9c6.8,0,9.3,7.8,8.7,15.1h-.9c-1-.4-2.2-1-3.4-1.2.7-8.5-4.4-9.1-5.6-10.4-.6-.6.1-2.1,1.2-3.4M856,328.4q1.1,6.8,4,23.2h-4.6c-6.6-3.3-4.1-30.8,1.2-37,6.5-9.3,20-14.5,27.6-2.3-.2.7-.5,1.3-.5,1.9-15-9.1-24.1-.1-27.7,14.2M848.7,275.3c-1.2,2.7-2.2,5-3.3,7.2,27.8,20.5,1.1,28.8,2.9,54.3-.2,4,1.4,9.8,3,14.2-1.7,1.2-5.1,4.6-6.8,4.3-12.9-42.4-11.4-71.7-7.9-114.5,0-7.7,0-15.1.5-22.6,10,3.3,9.1,26.1,6,36.2,0,5,9.9,7.8,5.6,20.9M864.1,362.3c0,4.4-3.7,8.2-8.2,8.2s-8-3.8-8-8.2,3.7-7.9,8-7.9,8.2,3.8,8.2,7.9M824.1,696.4c3.7-1,9.2-2.2,13-5.7-4.3,0-8.3.3-12.6.6,0-1.8.3-2.7.9-3.9,4.1-.3,9.5-1,14.1-3.9-8.7-4.1,0-13.2,6.6-4.7,0,14.2-8.2,21.7-21.8,21.7s-.4-3.2-.4-4M824.1,720.8c0-11.1,10.8-4.6,13-12.3-3.9.6-8.3,1.2-12.2,1.7-1.6-1.7-.8-4.6-.8-4.6,3.3-1.8,15.7-1.4,21.6-2.8-2.6,8.2-14,15.7-21.6,18.1M824.5,738.3c-.4-6.1,4.4-7.9,8.4-11.6,0,0-.5-.2-.5-.5q-6.4,2.1-7.8,2.1c-1.3-1-.5-2.5-.5-3,4.7-1,9.8-2.4,15.3-3.5,2.2,4.3-13,15.7-14.9,16.4M941,516.9c1-2.5,2-5.1,2.8-7.7.6-1.9,1.2-3.7,1.6-5.6.4-2,.6-4,.7-6,0-1.1,0-2.2,0-3.3-.1-1.6-.4-3.3-.7-4.9l-2.1-.6h-1s-1.3.2-1.3.2c.8-1.4,1.6-2.7,2.4-4.1l.2-4v-3.3s-.3-2.9-.3-2.9l-.5-2.7-.7-2.4-.9-2.1-1.1-1.9-1.3-1.6-1.4-1.4-1.5-1.1-1.6-.9-1.6-.6-1.7-.4h-1.7c0-.1-1.6-.1-1.6-.1l-1.6.2-1.5.4-1.5.6-1.3.7-1.2.9-1.1,1-.9,1.2-.2.4c-13.5-28.4-27-56.8-41.2-84.9-1.8-4.3-3.5-8.7-5.2-13-1.4-3.9-2.7-7.7-4-11.6-1-3.1-1.9-6.3-2.7-9.4l-1.4-6.2-.6-3-.4-2.9-.3-2.8v-2.6c0,0,0-2.4,0-2.4l.3-2.2.4-1.9.6-1.6.7-1.3.9-1.1,1.1-.8,1.4-.6,1.7-.3h2.1s2.5.3,2.5.3l.8.2-.5,1.9-.4,2.4v1.3s.1,1.3.1,1.3l.4,1.4.7,1.3,1,1.2,1.3,1,1.6.9,1.9.7,2.2.6,2.9.5,3.5-.7,2.8-.9,2.5-1.2,2.2-1.4,1.9-1.6,1.7-1.8c.7-.9,1.4-1.9,2-2.9l1-2.1c.4-1,.7-2.1,1-3.1.2-1,.4-2.1.5-3.1,0-1,.1-2.1.1-3.1,0-1-.2-1.9-.3-2.9-.5-2.3-1.2-4.6-2-6.9-.4-1.1-.8-2.2-1.3-3.3-.6-1.2-1.2-2.3-2-3.4-1-1.4-2-2.7-3.1-3.9-.1-3.7-.3-7.3-1.2-10.9l-.5-1.5c-.5-1.2-1.1-2.3-1.8-3.4-.5-.7-1-1.3-1.6-1.9-1.8-1.9-3.8-3.5-5.9-5.1.1-2.6.2-5.3.3-8,0-1.4.1-2.8-.3-4.1l-.3-.5-.9-1.1c-1.5-.4-3-.7-4.6-1-.7-.1-1.5-.3-2.2-.4-.9-3.6-2.1-7.1-3.8-10.4l-1.2-2.1c-.6-.9-1.2-1.7-1.9-2.5-.7-.7-1.3-1.3-2.1-1.9-.7-.5-1.4-.9-2.1-1.4-1.6-.8-3.1-1.3-4.8-1.9-1-.3-2.1-.6-3.1-1-.9-1-1.3-2.4-1.7-3.6-.4-1.6-.7-3.2-1.1-4.7-.4-1.8-1-3.4-1.5-5.2l-1.8-2.5-1.7-2-1.8-1.8-1.9-1.6-1.9-1.4-2-1.2-2-1-2.1-.8-2.1-.6-2.1-.4-2-.3h-2c0-.1-1.9-.1-1.9-.1l-1.9.2-1.8.3-1.7.4-1.6.6-1.6.7-1.4.9-1.3,1-1.1,1.1-1,1.3-.8,1.4-.5,1.5-.3,1.6v1.7s.3,1.7.3,1.7l.6,1.7.9,1.7,1.2,1.6,1.4,1.6,2,1.9,1.6.7,1.2.4,1.2.3h1.2c0,.1,1.1.2,1.1.2h1s1-.2,1-.2c.8-.2,1.5-.4,2.2-.7-.4,8.9-1,17.8-1.5,26.7-.5,7.8-.9,15.5-1.2,23.3-.2,6-.3,11.9-.2,17.9.1,4,.2,8.1.5,12.1l-.6-.5-1-.6-1-.5-1.1-.4-1.1-.2-4.1-.3c-.6-3.5-1.2-7.1-2.5-10.5l-.8-1.5c-.4-.7-.9-1.3-1.5-2l-1.3-1.1c-.7-.5-1.4-.9-2.2-1.2l-1.7-.6c-.9-.2-1.9-.4-2.8-.5-2.1-.2-4.1-.3-6.2-.3l-1.8.6-1.3.6-1.1.6-1,.7-.8.7-.7.7c-.6.8-1,1.5-1.5,2.4-.5.9-.8,1.9-1.2,2.8-1.9-1.5-3.7-3.2-5.5-4.9-5.5-5.5-10.7-11.3-16-17-8.1-8.6-16.7-17.1-27.3-22.4-4.3-2-8.8-3.5-13.1-5.5-.7-.3-1.4-.6-2.1-1.1l-2.5-4-1.1-2.1-1-2-.9-2-.7-1.9-.6-1.8-.4-1.8-.3-1.7-.2-1.6v-1.5c0,0,0-1.4,0-1.4v-1.3c.1,0,.4-1.2.4-1.2l.4-1.1.4-.9.6-.9.7-.7.7-.7.9-.6,1-.5,1.1-.4,1.3-.3,1.5-.2h1.6c0,0,1.8,0,1.8,0l1.9.2,2,.4,2.2.6,2.4.7,2.5.9,2.7,1.2,1.6.6,1.5.4,1.5.3h1.4c0,.1,1.4,0,1.4,0l1.3-.3,1.2-.4,1.1-.5,1-.7.9-.8.8-.9.7-.9.6-1c.5-1.1,1-2.1,1.4-3.3,1.2-3.4,1.9-6.9,2.7-10.3.6-2,1.1-4,2.2-5.8,1.4-1.3,2.7-2.7,4-4.2,1.2-1.5,2.3-3,3.3-4.7,1.2-2.1,2.2-4.3,3.1-6.5,1.2-3.3,2.2-6.6,3-10.1l1.6-1.9,1.8-2.4,1.3-2.4,1-2.4.6-2.4.3-2.4v-2.3s-.4-2.2-.4-2.2l-.6-2.1-.9-2.1-1.1-1.9-1.3-1.9-1.5-1.8-1.6-1.8-1.7-1.7-1.8-1.6c-1.9-1.6-3.9-3.2-5.9-4.7-4.6-3.5-9.4-6.8-13.9-10.5l-3.3-2.9-1.4-1.5-1.3-1.4-1.1-1.4-1.2-1.9-2.5-1.7c-3.5-2.2-7.2-4-10.9-5.8-4.7-2.2-9.4-4.4-13.7-7.2-1.2-.8-2.2-1.6-3.3-2.5-.6-.6-1.2-1.2-1.7-1.9l-.9-1.6-1.3-1.5-2.4-2.3-2.5-1.9-2.5-1.6-2.6-1.3c-1.3-.6-2.6-1-4-1.5l-2.7-.6c-1.3-.3-2.7-.4-4-.6-1.8-.2-3.6-.3-5.4-.3-4.2,0-8.3.3-12.5.6l-.3-1.1-.5-1.6-.7-1.5-.9-1.3-1-1.2-1.2-1-1.3-.8-1.4-.6-1.6-.4h-1.6c0-.1-1.6,0-1.6,0l-1.7.3-1.6.6-1.7.8-.6.4c-1.1-.3-2.3-.6-3.4-.9l-2.2-.2h-1.2s-1.1.2-1.1.2l-1.1.3-1.1.4-1,.6-1,.8-.9.9-.9,1-.8,1.2c-2.2-.3-4.4-.3-6.6,0l-1.5.3c-.7.2-1.3.5-2,.9-.6.4-1.2.7-1.7,1.2-.7.6-1.3,1.3-1.8,2.1-1.2,1.8-2.1,3.8-2.8,5.8-.9-.1-1.9-.4-2.8-.6-1-.3-2-.6-3-.9l-2.7.4v2.5c0,.6.3,1.2.4,1.9.3,1,.4,2.1.5,3.1-5.8,1.8-11.3,4.4-16.7,7.2l-4.4,2.5c-2.2,1.3-4.4,2.7-6.6,4.1-2.8,1.9-5.7,3.9-8.4,5.9-2.7,2.1-5.4,4.2-8,6.4-3.8,3.2-7.6,6.5-11.2,9.9-2.9,2.8-5.8,5.6-8.6,8.4l-.9,1.4c-3.8,6.2-6.8,12.9-10.7,19.1l-1.6,2.3c-.8,1.1-1.6,2.1-2.5,3.1-.9.9-1.8,1.8-2.7,2.7l-2,1.5-2.1,1.2-2.3.9-2.4.6-3.8.2-3.9.5-3.5.9-3.2,1.2-3,1.5-2.7,1.8-2.4,2.1-2.1,2.3-1.9,2.5-1.6,2.7-1.4,2.8-1.2,3-1,3.1-.9,3.2-.7,3.3-.6,3.4-1,7c-.8,7.1-1.4,14.2-2.1,21.3l-.9,6.8c-.7,4.4-1.5,8.9-3,13.1-6.4-16.2-13.6-32.1-20.5-48.1l1.2-.5,2.3-1.5-1-2.8c-1.9-4.8-4.4-9.3-6.9-13.8-2.1-3.8-4.2-7.5-6.4-11.2-2.8-5.1-5.8-10.3-8-15.7-.6-1.5-1.5-3.3-1-4.9.3-.9.9-1.6,1.3-2.4l-3-4.1c-4.4-6.1-8.6-12.3-12.6-18.7-2.9-4.7-5.6-9.5-8.2-14.4-.4-.8-.1-1.9,0-2.8.1-1.1.1-2.2.1-3.4-3.3-1.5-6.6-3-9.8-4.5-7.5-3.6-15-7.2-22.6-10.7-4.4-1.9-8.9-3.8-13.3-5.7l-9.3-3.6-4.7-1.7-4.7-1.6-4.7-1.4-4.7-1.3-4.7-1.1-4.7-.9-4.6-.7-4.6-.5-4.5-.3h-4.4s-4.3.4-4.3.4l-4.1.7-4,1-3.8,1.4-3.6,1.8-3.4,2.2-3.1,2.7-2.2,2.4c-3.2.8-6.5,1.6-9.6,2.5-4.4,1.2-8.6,2.5-12.9,4.2-2.2.9-4.4,1.9-6.5,3l-1.5,1.6-1.2,1.3-2,2.8-.9,1.5-.7,1.5-.7,1.5-.6,1.5-.5,1.6-.4,1.5-.3,1.6v1.6c-.1,0-.2,1.6-.2,1.6v3.1c.1,0,.7,3.1.7,3.1l.9,3.1,1.3,3,1.6,2.8,2,2.8,2.4,2.6,2.7,2.4,3,2.2,4.4,2.7.7-2.9.4-.6c.3-2.5.6-4.9,1.4-7.2,1.7-.1,3.3,0,5,.1l2.9.4c1.5.3,3.1.6,4.6.9,1.6.4,3.1.9,4.7,1.4,1.6.6,3.1,1.2,4.6,1.8,1.5.7,2.9,1.5,4.4,2.2,1.4.9,2.7,1.7,4,2.7l2.4,1.9,2.1,2.1,1.9,2.2,1.5,2.4,1.1,2.4.7,3.3.7,3.7.6,3.7.5,3.8.4,3.9.3,4,.2,4v4.1s0,4.1,0,4.1l-.2,4.1-.3,4.1-.4,4.1-.6,4-.7,4-.9,3.9-1,3.8-1.2,3.8-1.4,3.7-1.5,3.5-1.7,3.4-1.9,3.3-2.1,3.1-2.2,3-2.4,2.8-2.6,2.6-2.8,2.4-3,2.2-3.2,2-3.4,1.8-3.6,1.5-3.4,1.1c3.1-5.4,6.3-10.8,9.2-16.4,1.7-3.3,3.3-6.7,4.7-10.2.7-1.7,1.3-3.5,1.9-5.2.6-1.8,1.1-3.5,1.6-5.3.4-1.8.8-3.7,1.2-5.5.3-1.9.5-3.7.6-5.6v-4c.1,0-.7-5.2-.7-5.2l-1.1-4.7-1.4-4.4-1.7-4-2-3.7-2.3-3.3-2.5-3-2.7-2.7-2.9-2.4-3.1-2.1-3.3-1.8-3.4-1.5-3.6-1.2-3.7-.9-3.8-.7-3.8-.5-4-.2h-4s-4,.1-4,.1l-4.1.3-4.1.5-4.1.6-4.1.8-4.1.9-4,1-4,1.2-3.9,1.3-3.9,1.3-7.4,2.9-7.1,3.1-7.7,4.4-7.4,4.6-7.2,4.9-7,5.2-6.8,5.5-6.6,5.7-6.4,5.9-6.2,6.1-6,6.4-5.8,6.6-5.6,6.7-5.3,6.9-5.2,7.1-4.9,7.2-4.7,7.4-4.5,7.6-4.3,7.7-4.1,7.8-3.9,7.9-3.7,8-3.4,8.1-3.3,8.2-3,8.3-2.8,8.4-2.6,8.4-2.4,8.4-2.2,8.5-2,8.5-1.8,8.6-1.6,8.6-1.3,8.6-1.1,8.6-.8,10.8-.4,10.6v10.5s.5,10.5.5,10.5l.8,10.3,1.2,10.3,1.5,10.2,1.8,10.2,2.1,10.1,2.4,10,2.7,10,2.9,10,3.1,10,3.3,9.9,3.5,10,3.6,10,3.7,9.9,3.9,10,8,20.1c6.9,17,13.8,34,20.5,51l8,20.9,3.9,10.6,3.8,10.7,3.7,10.8,3.5,10.9,3.4,11.1c.9,3.4,1.6,6.8,2.4,10.2.7,2.9,1.3,5.8,2.1,8.6,1,3.7,2.2,7.3,3.6,10.8.7,1.8,1.6,3.5,2.4,5.3l5.4-2.8,3-1.9,2.7-2.1,2.4-2.3,2.2-2.5,1.9-2.6,1.7-2.7,1.5-2.9,1.3-2.9,1.1-3.1.9-3.1c.5-2.2,1-4.4,1.3-6.6.5,2.7,1.1,5.4,1.9,8.1l1.8,5.5c1.5-.5,3.1-1,4.6-1.5,2-.8,4-1.7,5.9-2.7,3.1-1.8,5.9-3.7,8.7-5.9-.9,5.8-1.5,11.5-1.7,17.3,0,3.3,0,6.6.3,9.9.1,1.6.4,3.3.6,4.9.3,1.6.6,3.2,1,4.8.4,1.6.9,3.1,1.5,4.6l2.2,5c2-.8,4-1.6,5.9-2.5,1.5-.7,3-1.6,4.5-2.5,1.4-.9,2.7-1.8,4-2.8,1.6-1.3,3-2.6,4.4-4,2.8-3,5.3-6.1,7.5-9.5l.2,3.5c.4,7.3.5,14.6,1.3,21.9.3,2.4.7,4.8,1.1,7.2.4,1.9.8,3.8,1.3,5.6.6,2,1.2,4,1.9,5.9.8,2.1,1.7,4.3,2.6,6.4l3.7,7.6,3.5-3.6c3.8-4,7.6-8.1,11.1-12.4,1.8-2.3,3.6-4.6,5.3-7,2.4-3.5,4.6-7.1,6.6-10.9.2,2.3.4,4.6.5,6.9.3,3.4.6,6.8,1,10.2.3,1.7.6,3.4,1,5.2.4,1.8.9,3.4,1.5,5.2l1.3,3.4,1.6,3.4,2,3.4,2.5,3.4,2.9,3.4,3.2,3.3,4.7-4c1.4-1.3,2.7-2.6,4-3.9,1.2-1.3,2.4-2.7,3.5-4,1-1.3,2.1-2.8,3-4.2.9-1.4,1.8-2.9,2.6-4.3,1.1-2,2.1-4,3-6,.9-2.1,1.6-4.2,2.4-6.4.9-2.7,1.6-5.5,2.4-8.2.3,1.5.7,2.9,1.1,4.3.4,1.5.9,3.1,1.5,4.6.6,1.5,1.2,3,1.8,4.4.7,1.4,1.4,2.8,2.2,4.2.8,1.4,1.7,2.7,2.7,4,1,1.3,2,2.7,3.1,3.9,1.2,1.3,2.4,2.6,3.6,3.8,1.4,1.3,2.8,2.5,4.2,3.8,1.9,1.6,3.9,3.1,5.9,4.6l2.6-1.1,1.4-.8,1.3-1,1.2-1.1,1.1-1.2,1-1.4,1-1.5.9-1.6,1.7-3.4c.8-1.8,1.5-3.6,2.2-5.5l1.3-3.9c1.6-5.7,3-11.4,4.2-17.2.4-1.8.7-3.5,1.1-5.3,4.2,7.9,8.8,15.7,13.9,23.1,1.1,1.6,2.3,3.1,3.5,4.6,1.1,1.3,2.2,2.6,3.4,3.9l2.3,2.1,1.1.9,1.2.7,1.2.6,3.3,1,2.4-7.4,1.5-5.2,1.3-5.2,1-5.2.9-5.2.7-5.2.5-5.2.4-5.2.2-5.2v-5.1c0,0,0-5.1,0-5.1v-5.1c-.1,0-.4-5.1-.4-5.1l-.9-10.2-1.2-10.1c-.7-5-1.5-10.1-2.2-15.1-2.2-13.4-4.7-26.6-6.9-40-.8-4.9-1.5-9.7-2.2-14.5,1.6,1.5,3.3,2.9,4.9,4.3l-3-.3c.6,2.6,1.1,5.2,1.8,7.8.7,2.6,1.5,5.3,2.4,8,1.3,3.9,2.9,7.7,4.6,11.5,1,2.2,2.1,4.3,3.1,6.4,1.4,2.6,2.9,5.1,4.4,7.5-2.7-1.6-5.4-3.2-8.1-4.8l.2,5,.3.8,2.9,5c4.5,7.3,9.1,14.5,13.8,21.6-2.2-1-4.4-2-6.6-3l-1.1,3.4v1.2c-.1,0,0,1.2,0,1.2l.3,1.1.4,1.1c.5,1.1,1.1,2.1,1.8,3.1l1.5,2.1c3.6,4.4,7.7,8.4,11.8,12.4l.9.9c-2.7-1-5.4-2.2-8.3-2.5l-6.8-.2c2.1,2.2,4.1,4.4,6.2,6.6,4.4,4.3,9,8.6,12.7,13.5.6.9,1.3,1.8,1.8,2.8-2.8,3-5.6,5.8-8,9-.6.9-1.2,1.8-1.7,2.8-.5,1-1,2.1-1.3,3.2-.8,2.6-1.2,5.2-1.2,7.9-8.7,8.3-17.3,16.7-25.9,25.1-1.8,0-3.4-.4-5.1-.7-5,.8-10,1.5-15,2.1-5.4.6-10.8,1-16.2,1.3-11.6.6-23.2.7-34.9.9l-3.5,1.3c-1.3.5-2.5,1.1-3.7,1.8l-1.9,1.2-1.5,1.4-.6.7-.5.8-.4.8-.3.8c-.2.8-.3,1.6-.4,2.4,0,2.1,0,4.2,0,6.2-.1,1.3-.3,2.5-.6,3.7-.3,1.1-.6,2.1-1,3.2-1.4-.1-2.8-.7-4.1-1.2-1.8-.7-3.5-1.5-5.2-2.4-2-1-4-2.1-6-3.3-4.4-2.6-8.8-5.4-13.1-8.3-7.5-5.1-14.9-10.4-21.7-16.3-1.9-1.7-3.7-3.4-5.5-5.2l-1.5,4.3v.9c0,0,0,.9,0,.9.1.9.4,1.7.7,2.5,1.5,3.8,3.5,7.3,5.5,10.8,1.8,3.1,3.5,6.2,4.9,9.5-3.1-1-6.1-2.4-9.2-3.7-7.5-3.5-14.9-7.3-22.2-11.3-5.8-3.1-11.4-6.4-17-9.6l10.8,13,2.5,2.8,5.3,5.7,5.8,5.8,6.2,5.7,6.7,5.6,3.5,2.7,3.5,2.7,3.7,2.6,3.7,2.5,3.8,2.4,3.8,2.3,3.9,2.2,4,2.1,4,1.9,4.1,1.8,4.1,1.6,4.1,1.4,4.1,1.2,4.1,1,4.2.8,4.2.6,4.2.4h4.2c0,.1,4.1,0,4.1,0l4.2-.5,4.1-.7,4.4-1.1,1-.7c.7-.6,1.3-1.2,1.9-1.8.7-.9,1.2-1.8,1.8-2.8.3-.7.6-1.5.8-2.2l1.1-7.4c.2-1.9.4-3.8,1-5.7.8,0,1.7-.1,2.5,0,.8,0,1.4.2,2.1.4.8.4,1.5.9,2.2,1.4h1.2c0-.1.4-.3.4-.3,1.5-.5,2.8-1.3,4.3-1.5h1.6c-1.9,2.1-3.7,4.3-5.5,6.4,1.5,1.4,2.9,2.8,4.3,4.2,1,1.1,2.1,2.3,3.2,3.3l.7.4.9.3h1c0,0,.9-.1.9-.1l.7-.3.6-.4,16.4-13.8h28.5c-1.8,1.4-3.5,2.9-5.3,4.3-7,5.6-14.2,10.9-21.5,16.2l.4,3.2.6,3.4.8,3.1,1.1,2.8c.6,1.3,1.2,2.6,2,3.9l1.5,2.4c.9,1.1,1.7,2.1,2.6,3.2,1.3,1.3,2.7,2.5,4.1,3.7,1.1.9,2.2,1.8,3.4,2.6,4.6,3.2,9.3,6.2,13.9,9.3l1.5-.3c2.2-.9,4.2-2.5,6.2-3.9,5.7-4.2,11.2-8.7,16.6-13.1,4.6-3.7,9-7.4,13.6-11.1,1.5-.4,2.8-1,4.1-1.8l1.4-1c.8-.7,1.5-1.5,2.2-2.3,1.4-1.8,2.5-3.8,4.2-5.4.4-.4.9-.7,1.3-1,.8-.4,1.5-.7,2.4-1,1.2-.3,2.3-.4,3.5-.6l1.2-1.2c2.8-2.9,5.3-6.2,8.1-9.2,1.3-1.3,2.7-2.6,4.2-3.7,1.1-.8,2.2-1.5,3.4-2.1v33.2l-8.8,8.3,1.6,2.5c1,1.5,2.1,2.8,3.3,4.1,1.1,1.3,2.3,2.4,3.6,3.5,1.3,1,2.6,1.9,4,2.7,1,.5,1.9.9,2.9,1.3,1.3.4,2.5.7,3.8.9,3.9.4,7.8,0,11.5-1.1l1.7-.6c1.8-.7,3.3-1.4,4.9-2.4.7-.5,1.5-1,2.2-1.6.7-.6,1.3-1.2,2-1.9.6-.7,1.2-1.5,1.7-2.2.5-.9.9-1.6,1.3-2.5l1-3.3c-2.9-2.5-5.8-5-8.7-7.4v-21.1c4.6,1.8,9.2,3.4,13.8,5,4.1,1.4,8.3,2.7,12.4,3.8,4.1,1.2,8.3,2.2,12.5,3.1,4.3.9,8.7,1.7,13,2.4,5.2.8,10.5,1.5,15.8,2,5.8,3.6,11.7,7.2,17.4,11,6.5,4.3,12.9,8.7,19.1,13.3l1.6-.3c2.9-.9,5.5-2.6,8-4.3,1-.7,1.9-1.4,2.9-2.2l1.5-1.5.6-.8,1.1-2.6c-5.9-3.7-12-7.2-17.9-10.8-6.5-4-13-8.1-19.3-12.4-2.3-1.6-4.6-3.2-6.8-4.9-2-1.5-4-3.1-5.9-4.7l-3.3-3-2.5-2.8-.9-1.2-.7-1.2h39.4c.5.4,1,.8,1.5,1.2,3.1,2.5,6.2,5.2,9.2,8,2,1.8,4,3.6,5.9,5.6l1.4,2.3c2.1-1.6,4.3-3.2,6.3-4.9,1.3-1.1,2.4-2.2,3.5-3.4l.6-1.3-.4-1.5c-1.1-2.2-2.8-4-4.3-5.9h22.3c.3.9.4,1.8.5,2.8.6,4.9.6,9.9,2.1,14.6l.6,1.5.9,1.4.8,1,4,1.7,3.7,1.2,3.8.7,3.9.4h4c0,0,4.1-.2,4.1-.2l4.1-.5,4.1-.8,4.2-1,4.2-1.3,4.2-1.5,4.2-1.7,4.2-1.9,4.2-2.1,4.2-2.2,4.1-2.4,4.1-2.5,4-2.6,4-2.7,7.8-5.5,7.4-5.6c3.4-2.7,6.9-5.5,10.2-8.4,3-2.6,6-5.2,8.9-7.9,2.8-2.6,5.6-5.2,8.4-7.9l-.4-1.7c-.1-.5-.3-.8-.6-1.2l-.9-.6-.7-.2h-1.2l-1.9,1.6c-1.7,1.3-3.5,2.5-5.3,3.7-2.4,1.5-4.8,2.9-7.3,4.2-2.6,1.3-5.2,2.5-7.8,3.7-7.1,3-14.3,5.5-21.7,7.5,1.2-2.2,2.5-4.3,3.7-6.5,2.3-4.5,4.4-9.2,5.3-14.2.3-.3.7-.6,1-.9,1.4-1.3,2.8-2.7,4.3-3.8.3-.2.5-.4.8-.6,1,0,1.9-.1,2.9-.2,2.7-.3,5.2-.7,7.8-1.4,1.6-.5,3.1-1.1,4.6-1.9,1.6-1,3.1-2.1,4.6-3.3,2.4-.3,4.9-.7,7.3-1.2l3.5-.9,3.3-1.1,3-1.3,2.8-1.6,2.5-1.8,2.3-2,2.1-2.2,1.9-2.5c.9-1.4,1.7-2.7,2.5-4.2l1.5-3.1c1.5-3.6,2.8-7.2,3.9-11,1.7-.1,3.3-.5,5-.9l1.9-.7,1.8-.9,1.6-1,1.5-1.2,1.3-1.3,1.2-1.4,1-1.5.9-1.6.7-1.6.6-1.7.4-1.8.4-1.8c.3-1.9.5-3.7.7-5.7v-3.9c0-5.3-.3-10.5-.6-15.7-.1-2-.2-4-.2-6l1.6-1.4c3.7-3.4,7.3-6.8,10.4-10.8l1.2-1.7c.7-1.2,1.4-2.3,2-3.5.4-.9.7-1.8,1-2.8.2-1,.4-1.9.5-2.9v-3.5c.1,0-3,0-3,0,1.1-1.1,2.2-2.2,3.2-3.4,1.3-1.6,2.4-3.3,3.3-5.2.3-.7.6-1.4.9-2.1.5-1.5.9-3,1.1-4.6.2-2.2.2-4.5.2-6.7-1.8,1-3.7,2.2-5.5,3.1.8-1.2,1.7-2.3,2.7-3.4l1.2-2.8.8-2.4.6-2.2.4-2.1v-2c.1,0,.1-1.8.1-1.8l-.3-1.7-.4-1.6-.6-1.4-.8-1.3-1-1.1-1-.9-1.2-.7-1.2-.6-1.2-.4-1.3-.3h-1.3c0-.1-1.3,0-1.3,0l-1.3.2-1.2.3-1.2.4-1.2.6-1,.7-1,.8-.9.9-.7,1.1-.6,1.2-.4,1.3v1.4c-.1,0-.1,1.1-.1,1.1-.7-.2-1.3-.6-1.9-1.1-.7-1-.9-2.1-1.2-3.3-.3-1-.5-2.1-.8-3.1l-1-1.5-1.6-2-1.8-1.6-1.9-1.2-1.9-.8-2-.5c-1-.1-1.9-.1-2.9-.1l-1.9.2c-2.9.5-5.6,1.4-8.5,2.1-1.3.3-2.6.6-3.9.7l-2-.9-2.3-1.1-2.1-1.2-2-1.2-1.9-1.3-1.8-1.3-1.6-1.4-1.5-1.5-1.4-1.5-1.3-1.5-1.2-1.6-1.1-1.6-1-1.6-.9-1.7-.8-1.8-1.3-3.6-1-3.8-.7-4c-.3-2.1-.5-4.1-.6-6.1v-4.2c0-3.3,0-6.6.3-9.9,2.9,2.6,5.9,5.1,8.9,7.5l3.9,3,4,2.8,4,2.7,4,2.5,4,2.3,4,2.1,4.1,1.9,4.1,1.7,4.1,1.5,4.1,1.3,4.2,1.1,4.2.9,4.2.6,4.2.4h4.3c0,.1,4.2,0,4.2,0l4.3-.3,4.3-.6,4.3-.9,4.3-1.2,4.3-1.4,4.3-1.7,4.3-2,4.2-2.3,4.3-2.5,4.2-2.9,4.2-3.1,4.2-3.5,3.6-3.2c1.7-.1,3.5.2,5.2.5,1.8.3,3.6.7,5.4,1.1,3.4.7,6.8,1.4,10.3,1.7,1.5.1,2.9.1,4.4.1,1.8,0,3.5-.3,5.3-.6v-2.6c0,0-.1-.8-.1-.8-.7-1.8-1.8-3.3-3-4.9-4.2-5.6-8.8-10.8-13.3-16v-1.9c-.1,0,0-1.2,0-1.2l.2-1,.3-1,.4-1,.6-1c.7-1,1.4-2,2.2-2.9l1.9-2c3.2-2.8,6.5-5.4,9.7-8.1,1.3-1.2,2.5-2.4,3.7-3.6l2.2-2.7,1-1.4.9-1.5.8-1.6.7-1.7.6-1.8.4-1.9.8-5.6-3.7,1.1c.8-1.3,1.6-2.6,2.2-4,1.8-3.7,3.2-7.5,3.8-11.6.2-1.8.2-3.7.2-5.5l-4.6,1.9c2-3.6,3.7-7.2,5.1-11,.5-1.3.9-2.6,1.3-4,.5-1.9.9-3.8,1.1-5.8.3-2.8.2-5.5.3-8.3-2.4,1.9-4.8,3.8-7.4,5.5"/>
  <path class="cls-1" d="M563.8,592.7h.6c1.3-5,.3-5,4.7-7.2-1.6-4.3-1.9-3.8-5.2-3.8,0,.6-1.2,11-.1,11"/>
  <path class="cls-1" d="M556.6,597.6c-.6-.3-2.1-1.9-1.7-3.5-.9-.6-2.9-2.3-4.9-3.5,1.1,3.5,4,12.5,10.6,12.3,6.4,0,6.6-7.2,10.8-10.2-.3-.7-.5-.9-.5-1.2-1.4,1-3.2,1.7-4.3,2.5.9,1.7,1.7,2.4-.6,3.4-2,.6-3.9-.7-5-2.1-2.4,2.1-3.4,2.7-4.3,2.2"/>
  <path class="cls-1" d="M558.3,592.1c-.5-3.3-.9-7.1-1.3-10.7-9.4,1.9-1.6,4.7,0,11.1.4-.4.7-.4,1.3-.4"/>
  <path class="cls-1" d="M449,481.3c0,0,.1.1.2.2,0,0,0,0,.1,0,.3,0,0,0-.3-.1"/>
  <path class="cls-1" d="M507.7,457.6c0-.8,0-1.7.2-2.7-6.9-1.1-10.9-2.7-12.4-8.6-5.9,5.8-12.7,10.4-14.8,18.1,4-.9,11.2-7.7,17.5-9.6-.4,1.8-2.9,4.1-2.9,6.7,3.1,0,6.2-3.9,12.4-3.9"/>
  <path class="cls-1" d="M464.8,538.5c0-.7-9,.1-15.5-4.9v-5.6c0,.8,7.1,5.6,15.5,5.6s18.3-3.3,18.3-5.7c0,4.4,12.3,5.7,16.1,5.7,5.9,0,11.1-1.3,17.3-5.7,7.5,2.8,12.9,5.7,17.7,5.7,6.6.4,11.4-3.1,15.4-5.8-.2,1.8.4,5.8-.2,5.8-5.1,1.4-10.5,5-15.2,5-9.7-.1-17.7-5-17.7-5-6.5,2.6-11.7,5.3-17.3,5-6.4-.1-9-1.3-16.1-5-18.3,4.9-18.3,5-18.3,4.9M433.8,508.1s0-5.1,1.2-5.1c5.5,4.5,9.9,5.7,14.3,5.1,4.7-.3,9.5-2.7,15.5-5.1,6.6,3.1,12.3,5.6,18.3,5.1,5,0,15.4-5.1,16.1-5.1,5.1,4,11.1,5.7,17.3,5.1,5.9-.1,11.2-1.8,17.7-5.1,5.1,3.4,7.7,5.7,15.2,5.1,6.3,0,14.9-5.1,14.9-5.1v5.1c-5.3,3.3-14.7,5.5-14.7,5.6,0,0-10.3-.7-15.4-5.6-7.4,4.9-12.2,5.6-17.7,5.6s-10.6-5.6-17.3-5.6c-2.1,2.1-7.3,5.7-16.1,5.6-5.1-.5-11.1-3.4-18.3-5.6-5.8,4-9.4,5-15.5,5.6-2-.6-11.4-2.7-15.5-5.6M573.6,487.3c-9.5-1.6-16.9-2.6-23.9-5.8-14,8.3-21.2,8.3-33.1,0-16.7,8.3-18.3,8.9-33.4,0-11.6,7.6-24.2,9-34,0-9.7,6-17.6,6.1-28.8,6.1,0,45.4,34.8,76.2,78.9,91.1,44.3-12.2,74.3-42,74.3-91.4"/>
  <path class="cls-1" d="M526.2,434c0,12.7-27,6.5-32.1,6.4-4.9,1.3-7.9,2.3-12.2,2.4-8.3-.6-12.2-1.8-13.9-8.8h58.1ZM451.6,472.1v.4c-5,2.5-9.7,3.9-11.6,8.5,21.3-11.1,36.5-20.1,52.7-37.6,7.2-1.8,12.7,2.6,22,4.3,10.6,13.6,41.4,22.8,58.9,20v-68.6h-153.2v75.9c5.8-3.1,13.5-7.9,19.2-12.3,3.1.6,7.1,6.3,12.1,9.4"/>
</svg>